<?xml version="1.0" encoding="UTF-8" standalone="no"?>
<!-- Created with Inkscape (http://www.inkscape.org/) -->

<svg
   version="1.1"
   id="svg1"
   width="541.94397"
   height="402.84"
   viewBox="0 0 541.94397 402.84"
   xmlns="http://www.w3.org/2000/svg"
   xmlns:svg="http://www.w3.org/2000/svg">
  <defs
     id="defs1" />
  <g
     id="g1"
     transform="translate(0,-1.0071e-5)">
    <g
       id="group-R5">
      <path
         id="path2"
         d="M 1095.92,843.281 1402.01,2649.03 3363.98,74.1602 Z M 126.914,131.289 1330.74,2560.39 1039.1,839.879 Z M 1069.86,793.559 3247.52,55.0898 H 119.203 Z M 1375.43,2775.39 0,0 H 3490.16 L 1375.43,2775.39"
         style="fill:#151c26;fill-opacity:1;fill-rule:nonzero;stroke:none"
         transform="matrix(0.13333333,0,0,-0.13333333,0,402.84)" />
      <path
         id="path3"
         d="m 1957.57,2536.14 c 39.46,232.74 71.19,419.93 82.25,485.16 12.73,-17.01 20.99,-27.97 20.99,-27.97 0,0 1695.81,-2250.799 2003.77,-2659.541 -278.64,94.543 -2345.48,795.441 -2345.48,795.441 0,0 142.21,839.03 238.47,1406.91"
         style="fill:#161d26;fill-opacity:1;fill-rule:nonzero;stroke:none"
         transform="matrix(0.13333333,0,0,-0.13333333,0,402.84)" />
    </g>
  </g>
</svg>
