<?xml version="1.0" encoding="UTF-8" standalone="no"?>
<!DOCTYPE svg PUBLIC "-//W3C//DTD SVG 1.1//EN" "http://www.w3.org/Graphics/SVG/1.1/DTD/svg11.dtd">
<svg width="100%" height="100%" viewBox="0 0 50 50" version="1.1" xmlns="http://www.w3.org/2000/svg" xmlns:xlink="http://www.w3.org/1999/xlink" xml:space="preserve" xmlns:serif="http://www.serif.com/" style="fill-rule:evenodd;clip-rule:evenodd;stroke-linecap:square;stroke-linejoin:round;stroke-miterlimit:1.5;">
    <g id="g10" transform="matrix(1.33333,0,0,-1.33333,-672.581,575.345)">
        <g id="g112">
            <g id="g114">
                <g id="g120">
                    <g id="g122">
                        <rect id="path128" x="505.02" y="394.98" width="36" height="36" style="fill:rgb(0,0,255);fill-rule:nonzero;"/>
                        <rect id="path130" x="505.02" y="430.44" width="36.54" height="1.02" style="fill:rgb(0,0,255);fill-rule:nonzero;"/>
                        <rect id="path132" x="540.54" y="394.44" width="1.02" height="36.54" style="fill:rgb(0,0,255);fill-rule:nonzero;"/>
                        <rect id="path134" x="504.54" y="394.44" width="36.48" height="1.02" style="fill:rgb(0,0,255);fill-rule:nonzero;"/>
                        <rect id="path136" x="504.54" y="394.98" width="1.02" height="36.48" style="fill:rgb(0,0,255);fill-rule:nonzero;"/>
                    </g>
                </g>
            </g>
        </g>
        <g id="g138">
            <g id="g140">
                <clipPath id="_clip1">
                    <rect x="508.62" y="398.58" width="28.8" height="28.8"/>
                </clipPath>
                <g clip-path="url(#_clip1)">
                    <g id="g146">
                        <g id="g148">
                            <g id="g154">
                                <g id="g156">
                                    <rect id="path162" x="508.62" y="398.58" width="28.8" height="28.8" style="fill:rgb(126,126,126);fill-rule:nonzero;"/>
                                    <rect id="path164" x="508.62" y="426.84" width="28.8" height="0.57" style="fill:rgb(126,126,126);fill-rule:nonzero;"/>
                                    <rect id="path166" x="536.94" y="398.55" width="0.48" height="28.83" style="fill:rgb(126,126,126);fill-rule:nonzero;"/>
                                    <rect id="path168" x="508.56" y="398.55" width="28.86" height="0.51" style="fill:rgb(126,126,126);fill-rule:nonzero;"/>
                                    <rect id="path170" x="508.56" y="398.58" width="0.6" height="28.83" style="fill:rgb(126,126,126);fill-rule:nonzero;"/>
                                </g>
                            </g>
                        </g>
                    </g>
                </g>
            </g>
        </g>
        <rect id="path188" x="512.22" y="402.18" width="21.6" height="21.6" style="fill:rgb(0,0,255);fill-rule:nonzero;"/>
        <rect id="path190" x="512.22" y="423.24" width="22.14" height="1.02" style="fill:rgb(0,0,255);fill-rule:nonzero;"/>
        <rect id="path192" x="533.34" y="401.64" width="1.02" height="22.14" style="fill:rgb(0,0,255);fill-rule:nonzero;"/>
        <rect id="path194" x="511.74" y="401.64" width="22.08" height="1.02" style="fill:rgb(0,0,255);fill-rule:nonzero;"/>
        <rect id="path196" x="511.74" y="402.18" width="1.02" height="22.08" style="fill:rgb(0,0,255);fill-rule:nonzero;"/>
        <g transform="matrix(0.0902778,0,0,-0.0902778,507.436,429.268)">
            <path d="M72,126L168,72L168,288L132,270L132,138L72,168L72,126Z" style="fill:white;stroke:rgb(129,129,129);stroke-width:6.65px;"/>
        </g>
        <g transform="matrix(0.0902778,0,0,-0.0902778,507.436,429.268)">
            <path d="M175.999,288L178,72L270,126L270,168L216,138L216,162L240,178L240,216L216,204L216,270L175.999,288Z" style="fill:white;stroke:rgb(129,129,129);stroke-width:6.65px;"/>
        </g>
    </g>
</svg>
