<?xml version="1.0" encoding="UTF-8" standalone="no"?>
<!DOCTYPE svg PUBLIC "-//W3C//DTD SVG 1.1//EN" "http://www.w3.org/Graphics/SVG/1.1/DTD/svg11.dtd">
<svg width="100%" height="100%" viewBox="0 0 50 50" version="1.1" xmlns="http://www.w3.org/2000/svg" xmlns:xlink="http://www.w3.org/1999/xlink" xml:space="preserve" xmlns:serif="http://www.serif.com/" style="fill-rule:evenodd;clip-rule:evenodd;stroke-linecap:round;stroke-miterlimit:1.5;">
    <g id="g10" transform="matrix(1.33333,0,0,-1.33333,-672.581,575.345)">
        <g id="g112">
            <g id="g114">
                <g id="g120">
                    <g id="g122">
                        <rect id="path128" x="505.02" y="394.98" width="36" height="36" style="fill:rgb(0,0,255);fill-rule:nonzero;"/>
                        <rect id="path130" x="505.02" y="430.44" width="36.54" height="1.02" style="fill:rgb(0,0,255);fill-rule:nonzero;"/>
                        <rect id="path132" x="540.54" y="394.44" width="1.02" height="36.54" style="fill:rgb(0,0,255);fill-rule:nonzero;"/>
                        <rect id="path134" x="504.54" y="394.44" width="36.48" height="1.02" style="fill:rgb(0,0,255);fill-rule:nonzero;"/>
                        <rect id="path136" x="504.54" y="394.98" width="1.02" height="36.48" style="fill:rgb(0,0,255);fill-rule:nonzero;"/>
                    </g>
                </g>
            </g>
        </g>
        <g id="g138">
            <g id="g140">
                <clipPath id="_clip1">
                    <rect x="508.62" y="398.58" width="28.8" height="28.8"/>
                </clipPath>
                <g clip-path="url(#_clip1)">
                    <g id="g146">
                        <g id="g148">
                            <g id="g154">
                                <g id="g156">
                                    <rect id="path162" x="508.62" y="398.58" width="28.8" height="28.8" style="fill:rgb(126,126,126);fill-rule:nonzero;"/>
                                    <rect id="path164" x="508.62" y="426.84" width="28.8" height="0.57" style="fill:rgb(126,126,126);fill-rule:nonzero;"/>
                                    <rect id="path166" x="536.94" y="398.55" width="0.48" height="28.83" style="fill:rgb(126,126,126);fill-rule:nonzero;"/>
                                    <rect id="path168" x="508.56" y="398.55" width="28.86" height="0.51" style="fill:rgb(126,126,126);fill-rule:nonzero;"/>
                                    <rect id="path170" x="508.56" y="398.58" width="0.6" height="28.83" style="fill:rgb(126,126,126);fill-rule:nonzero;"/>
                                </g>
                            </g>
                        </g>
                    </g>
                </g>
            </g>
        </g>
        <g transform="matrix(0.675224,0,0,-0.807857,517.479,433.55)">
            <rect x="-8.5" y="11.5" width="33.5" height="28" style="fill:rgb(0,0,255);"/>
        </g>
        <g transform="matrix(0.102745,0,0,-0.102745,447.613,532.613)">
            <path d="M722.269,1136.24C722.536,1129.31 722.063,1115.44 722.518,1110C722.995,1104.3 723.516,1092.25 727.497,1089.36C731.334,1086.58 727.077,1075.04 731.198,1075.27C735.32,1075.5 732.262,1087.68 735,1089.54C737.738,1091.4 738.934,1103.18 739.276,1110C739.618,1116.82 739.942,1160.33 739.951,1167.64C739.961,1174.96 738.716,1179.84 742.37,1181.1C746.023,1182.36 751.895,1170.26 754.298,1166.76C756.702,1163.26 782.769,1122.47 786.225,1119.88C788.86,1117.91 791.708,1115.88 793.184,1115.35C794.661,1114.83 799.094,1105.7 800.871,1107.04C802.648,1108.39 797.244,1116.81 797.224,1118.87C797.204,1120.94 795.479,1125.67 795,1127.24C794.521,1128.81 747.715,1204.84 745.384,1208.08C743.053,1211.32 742.02,1212.4 740.183,1217.39C738.346,1222.38 740.729,1258.38 731.198,1257.75C721.667,1257.11 724.297,1222.82 721.717,1216.38C719.639,1211.19 719.08,1212.26 716.422,1207.28C713.735,1202.26 672.054,1138.97 670.072,1134.31C668.09,1129.64 664.861,1123.06 665.16,1119.18C665.459,1115.29 658.444,1108.4 660,1107.26C661.556,1106.12 666.64,1113.73 669.62,1115.4C672.599,1117.07 680.88,1123.42 683.197,1126.78C685.514,1130.13 709.899,1170.86 711.901,1173.72C713.904,1176.59 716.677,1182.24 720,1181.21C723.323,1180.18 721.947,1174.02 721.951,1170C721.955,1165.98 722.003,1143.17 722.269,1136.24Z" style="fill:white;stroke:white;stroke-width:12.17px;"/>
        </g>
    </g>
</svg>
