<?xml version="1.0" encoding="UTF-8" standalone="no"?>
<svg
   version="1.2"
   width="61.57mm"
   height="33.209999mm"
   viewBox="0 0 6157.0001 3320.9998"
   preserveAspectRatio="xMidYMid"
   fill-rule="evenodd"
   stroke-width="28.222"
   stroke-linejoin="round"
   xml:space="preserve"
   id="svg794"
   sodipodi:docname="index_change_tpd.svg"
   inkscape:version="1.2.2 (b0a84865, 2022-12-01)"
   inkscape:export-filename="index_change_tpd.pdf"
   inkscape:export-xdpi="96"
   inkscape:export-ydpi="96"
   xmlns:inkscape="http://www.inkscape.org/namespaces/inkscape"
   xmlns:sodipodi="http://sodipodi.sourceforge.net/DTD/sodipodi-0.dtd"
   xmlns="http://www.w3.org/2000/svg"
   xmlns:svg="http://www.w3.org/2000/svg"
   xmlns:ooo="http://xml.openoffice.org/svg/export"><sodipodi:namedview
   id="namedview796"
   pagecolor="#ffffff"
   bordercolor="#000000"
   borderopacity="0.25"
   inkscape:showpageshadow="2"
   inkscape:pageopacity="0.0"
   inkscape:pagecheckerboard="0"
   inkscape:deskcolor="#d1d1d1"
   inkscape:document-units="mm"
   showgrid="false"
   inkscape:zoom="3.7015471"
   inkscape:cx="97.121552"
   inkscape:cy="81.452428"
   inkscape:window-width="1654"
   inkscape:window-height="1041"
   inkscape:window-x="56"
   inkscape:window-y="43"
   inkscape:window-maximized="0"
   inkscape:current-layer="svg794" />
 <defs
   class="ClipPathGroup"
   id="defs15">
  <clipPath
   id="presentation_clip_path"
   clipPathUnits="userSpaceOnUse">
   <rect
   x="0"
   y="0"
   width="7160"
   height="6540"
   id="rect9" />
  </clipPath>
  <clipPath
   id="presentation_clip_path_shrink"
   clipPathUnits="userSpaceOnUse">
   <rect
   x="7"
   y="6"
   width="7146"
   height="6527"
   id="rect12" />
  </clipPath>
 </defs>
 <defs
   class="TextShapeIndex"
   id="defs19">
  <g
   ooo:slide="id1"
   ooo:id-list="id3 id4 id5 id6 id7 id8 id9 id10 id11 id12 id13 id14 id15 id16 id17 id18 id19 id20 id21 id22 id23 id24 id25 id26 id27 id28 id29 id30 id31 id32 id33 id34 id35 id36 id37 id38 id39 id40 id41 id42 id43 id44 id45 id46 id47 id48 id49 id50 id51 id52 id53 id54 id55 id56 id57 id58 id59 id60 id61 id62 id63 id64 id65 id66 id67 id68 id69 id70 id71 id72 id73 id74 id75 id76 id77 id78 id79 id80 id81 id82 id83 id84 id85 id86 id87 id88 id89 id90 id91 id92 id93 id94 id95 id96 id97 id98"
   id="g17" />
 </defs>
 <defs
   class="EmbeddedBulletChars"
   id="defs51">
  <g
   id="bullet-char-template-57356"
   transform="matrix(4.8828125e-4,0,0,-4.8828125e-4,0,0)">
   <path
   d="M 580,1141 1163,571 580,0 -4,571 Z"
   id="path21" />
  </g>
  <g
   id="bullet-char-template-57354"
   transform="matrix(4.8828125e-4,0,0,-4.8828125e-4,0,0)">
   <path
   d="M 8,1128 H 1137 V 0 H 8 Z"
   id="path24" />
  </g>
  <g
   id="bullet-char-template-10146"
   transform="matrix(4.8828125e-4,0,0,-4.8828125e-4,0,0)">
   <path
   d="M 174,0 602,739 174,1481 1456,739 Z M 1358,739 309,1346 659,739 Z"
   id="path27" />
  </g>
  <g
   id="bullet-char-template-10132"
   transform="matrix(4.8828125e-4,0,0,-4.8828125e-4,0,0)">
   <path
   d="M 2015,739 1276,0 H 717 l 543,543 H 174 v 393 h 1086 l -543,545 h 557 z"
   id="path30" />
  </g>
  <g
   id="bullet-char-template-10007"
   transform="matrix(4.8828125e-4,0,0,-4.8828125e-4,0,0)">
   <path
   d="m 0,-2 c -7,16 -16,29 -25,39 l 381,530 c -94,256 -141,385 -141,387 0,25 13,38 40,38 9,0 21,-2 34,-5 21,4 42,12 65,25 l 27,-13 111,-251 280,301 64,-25 24,25 c 21,-10 41,-24 62,-43 C 886,937 835,863 770,784 769,783 710,716 594,584 L 774,223 c 0,-27 -21,-55 -63,-84 l 16,-20 C 717,90 699,76 672,76 641,76 570,178 457,381 L 164,-76 c -22,-34 -53,-51 -92,-51 -42,0 -63,17 -64,51 -7,9 -10,24 -10,44 0,9 1,19 2,30 z"
   id="path33" />
  </g>
  <g
   id="bullet-char-template-10004"
   transform="matrix(4.8828125e-4,0,0,-4.8828125e-4,0,0)">
   <path
   d="M 285,-33 C 182,-33 111,30 74,156 52,228 41,333 41,471 c 0,78 14,145 41,201 34,71 87,106 158,106 53,0 88,-31 106,-94 l 23,-176 c 8,-64 28,-97 59,-98 l 735,706 c 11,11 33,17 66,17 42,0 63,-15 63,-46 V 965 c 0,-36 -10,-64 -30,-84 L 442,47 C 390,-6 338,-33 285,-33 Z"
   id="path36" />
  </g>
  <g
   id="bullet-char-template-9679"
   transform="matrix(4.8828125e-4,0,0,-4.8828125e-4,0,0)">
   <path
   d="M 813,0 C 632,0 489,54 383,161 276,268 223,411 223,592 c 0,181 53,324 160,431 106,107 249,161 430,161 179,0 323,-54 432,-161 108,-107 162,-251 162,-431 0,-180 -54,-324 -162,-431 C 1136,54 992,0 813,0 Z"
   id="path39" />
  </g>
  <g
   id="bullet-char-template-8226"
   transform="matrix(4.8828125e-4,0,0,-4.8828125e-4,0,0)">
   <path
   d="m 346,457 c -73,0 -137,26 -191,78 -54,51 -81,114 -81,188 0,73 27,136 81,188 54,52 118,78 191,78 73,0 134,-26 185,-79 51,-51 77,-114 77,-187 0,-75 -25,-137 -76,-188 -50,-52 -112,-78 -186,-78 z"
   id="path42" />
  </g>
  <g
   id="bullet-char-template-8211"
   transform="matrix(4.8828125e-4,0,0,-4.8828125e-4,0,0)">
   <path
   d="M -4,459 H 1135 V 606 H -4 Z"
   id="path45" />
  </g>
  <g
   id="bullet-char-template-61548"
   transform="matrix(4.8828125e-4,0,0,-4.8828125e-4,0,0)">
   <path
   d="m 173,740 c 0,163 58,303 173,419 116,115 255,173 419,173 163,0 302,-58 418,-173 116,-116 174,-256 174,-419 0,-163 -58,-303 -174,-418 C 1067,206 928,148 765,148 601,148 462,206 346,322 231,437 173,577 173,740 Z"
   id="path48" />
  </g>
 </defs>
 <g
   id="g56"
   transform="translate(-635,-1591)">
  <g
   id="id2"
   class="Master_Slide">
   <g
   id="bg-id2"
   class="Background" />
   <g
   id="bo-id2"
   class="BackgroundObjects" />
  </g>
 </g>
 <g
   class="SlideGroup"
   id="g792"
   transform="translate(-635,-1591)">
  <g
   id="g790">
   <g
   id="container-id1">
    <g
   id="id1"
   class="Slide"
   clip-path="url(#presentation_clip_path)">
     <g
   class="Page"
   id="g786">
      <g
   class="com.sun.star.drawing.CustomShape"
   id="g65">
       <g
   id="id3">
        <rect
   class="BoundingBox"
   stroke="none"
   fill="none"
   x="2844"
   y="3558"
   width="737"
   height="731"
   id="rect58" />
        <path
   fill="#cccccc"
   stroke="none"
   d="m 3212,4270 h -350 v -694 h 700 v 694 z"
   id="path60" />
        <path
   fill="none"
   stroke="#000000"
   stroke-width="35"
   stroke-linejoin="round"
   d="m 3212,4270 h -350 v -694 h 700 v 694 z"
   id="path62" />
       </g>
      </g>
      <g
   class="Group"
   id="g81">
       <g
   class="com.sun.star.drawing.LineShape"
   id="g72">
        <g
   id="id4">
         <rect
   class="BoundingBox"
   stroke="none"
   fill="none"
   x="3194"
   y="3560"
   width="37"
   height="718"
   id="rect67" />
         <path
   fill="none"
   stroke="#000000"
   stroke-width="35"
   stroke-linejoin="round"
   d="m 3212,3578 v 681"
   id="path69" />
        </g>
       </g>
       <g
   class="com.sun.star.drawing.LineShape"
   id="g79">
        <g
   id="id5">
         <rect
   class="BoundingBox"
   stroke="none"
   fill="none"
   x="2851"
   y="3900"
   width="724"
   height="37"
   id="rect74" />
         <path
   fill="none"
   stroke="#000000"
   stroke-width="35"
   stroke-linejoin="round"
   d="m 2869,3918 h 687"
   id="path76" />
        </g>
       </g>
      </g>
      <g
   class="com.sun.star.drawing.CustomShape"
   id="g90">
       <g
   id="id6">
        <rect
   class="BoundingBox"
   stroke="none"
   fill="none"
   x="2862"
   y="3569"
   width="700"
   height="695"
   id="rect83" />
        <path
   fill="#d62e4e"
   fill-opacity="0.4"
   stroke="none"
   d="m 2893,3723 v -1 c -5,6 -9,12 -11,20 -2,7 -2,15 0,22 2,8 6,15 11,20 l 449,448 v 0 c 6,5 13,9 20,11 7,2 15,2 23,0 7,-2 14,-6 20,-11 l 124,-123 h 1 c 5,-5 9,-12 11,-20 2,-7 2,-15 0,-22 -2,-8 -6,-14 -11,-20 l -450,-448 v 1 0 c -5,-6 -12,-10 -19,-12 -8,-2 -16,-2 -23,0 -8,2 -14,6 -20,11 z"
   id="path85" />
        <path
   fill="none"
   stroke="#a7074b"
   stroke-width="35"
   stroke-linejoin="round"
   d="m 2893,3723 v -1 c -5,6 -9,12 -11,20 -2,7 -2,15 0,22 2,8 6,15 11,20 l 449,448 v 0 c 6,5 13,9 20,11 7,2 15,2 23,0 7,-2 14,-6 20,-11 l 124,-123 h 1 c 5,-5 9,-12 11,-20 2,-7 2,-15 0,-22 -2,-8 -6,-14 -11,-20 l -450,-448 v 1 0 c -5,-6 -12,-10 -19,-12 -8,-2 -16,-2 -23,0 -8,2 -14,6 -20,11 z"
   id="path87" />
       </g>
      </g>
      <g
   class="com.sun.star.drawing.CustomShape"
   id="g99">
       <g
   id="id7">
        <rect
   class="BoundingBox"
   stroke="none"
   fill="none"
   x="2861"
   y="3569"
   width="700"
   height="695"
   id="rect92" />
        <path
   fill="#a1467e"
   fill-opacity="0.361"
   stroke="none"
   d="m 3529,3723 v -1 c 5,6 9,12 11,20 2,7 2,15 0,22 -2,8 -6,15 -11,20 l -449,448 v 0 c -6,5 -13,9 -20,11 -7,2 -15,2 -23,0 -7,-2 -14,-6 -20,-11 l -124,-123 h -1 c -5,-5 -9,-12 -11,-20 -2,-7 -2,-15 0,-22 2,-8 6,-14 11,-20 l 450,-448 v 1 0 c 5,-6 12,-10 19,-12 8,-2 16,-2 23,0 8,2 14,6 20,11 z"
   id="path94" />
        <path
   fill="none"
   stroke="#5b277d"
   stroke-width="35"
   stroke-linejoin="round"
   d="m 3529,3723 v -1 c 5,6 9,12 11,20 2,7 2,15 0,22 -2,8 -6,15 -11,20 l -449,448 v 0 c -6,5 -13,9 -20,11 -7,2 -15,2 -23,0 -7,-2 -14,-6 -20,-11 l -124,-123 h -1 c -5,-5 -9,-12 -11,-20 -2,-7 -2,-15 0,-22 2,-8 6,-14 11,-20 l 450,-448 v 1 0 c 5,-6 12,-10 19,-12 8,-2 16,-2 23,0 8,2 14,6 20,11 z"
   id="path96" />
       </g>
      </g>
      <g
   class="Group"
   id="g157">
       <g
   class="com.sun.star.drawing.ClosedBezierShape"
   id="g106">
        <g
   id="id8">
         <rect
   class="BoundingBox"
   stroke="none"
   fill="none"
   x="2967"
   y="3676"
   width="90"
   height="94"
   id="rect101" />
         <path
   fill="#000000"
   stroke="none"
   d="m 3056,3765 c 0,-1 -1,-1 -3,-1 -8,0 -8,-1 -8,-4 -3,-27 -6,-54 -8,-81 -1,-2 -1,-3 -3,-3 -2,0 -2,1 -3,3 -15,25 -30,49 -45,74 -5,9 -10,11 -16,11 -2,0 -3,0 -3,3 0,1 1,1 2,1 4,0 8,0 11,0 5,0 9,0 13,0 1,0 3,0 3,-2 0,-2 -1,-2 -3,-2 -3,0 -5,-1 -5,-4 0,-2 0,-3 1,-5 1,-2 1,-2 10,-16 11,0 22,0 33,0 0,2 2,20 2,21 0,4 -7,4 -10,4 -1,0 -3,0 -3,3 0,1 1,1 2,1 5,0 11,0 16,0 3,0 11,0 15,0 1,0 2,0 2,-3 z m -25,-31 c -10,0 -20,0 -30,0 9,-13 17,-27 26,-41 1,14 3,28 4,41 z"
   id="path103" />
        </g>
       </g>
       <g
   class="com.sun.star.drawing.ClosedBezierShape"
   id="g113">
        <g
   id="id9">
         <rect
   class="BoundingBox"
   stroke="none"
   fill="none"
   x="3064"
   y="3740"
   width="44"
   height="63"
   id="rect108" />
         <path
   fill="#000000"
   stroke="none"
   d="m 3106,3771 c 0,-9 -1,-17 -5,-23 -3,-4 -8,-8 -16,-8 -21,0 -21,25 -21,31 0,7 0,31 21,31 21,0 21,-24 21,-31 z m -8,-1 c 0,7 0,13 -1,19 -2,8 -8,10 -12,10 -4,0 -9,-2 -11,-10 -1,-5 -1,-12 -1,-19 0,-7 0,-13 1,-18 2,-7 8,-9 11,-9 5,0 10,3 12,8 1,5 1,11 1,19 z"
   id="path110" />
        </g>
       </g>
       <g
   class="com.sun.star.drawing.ClosedBezierShape"
   id="g120">
        <g
   id="id10">
         <rect
   class="BoundingBox"
   stroke="none"
   fill="none"
   x="3307"
   y="3676"
   width="90"
   height="94"
   id="rect115" />
         <path
   fill="#000000"
   stroke="none"
   d="m 3396,3765 c 0,-1 -1,-1 -3,-1 -8,0 -8,-1 -8,-4 -3,-27 -6,-54 -9,-81 0,-2 0,-3 -2,-3 -2,0 -3,1 -3,3 -15,25 -30,49 -45,74 -5,9 -10,11 -16,11 -1,0 -3,0 -3,3 0,1 1,1 2,1 4,0 7,0 11,0 4,0 9,0 13,0 1,0 2,0 2,-2 0,-2 -1,-2 -2,-2 -3,0 -6,-1 -6,-4 0,-2 1,-3 2,-5 1,-2 1,-2 10,-16 11,0 22,0 32,0 0,2 2,20 2,21 0,4 -6,4 -9,4 -2,0 -3,0 -3,3 0,1 1,1 2,1 5,0 11,0 16,0 3,0 11,0 15,0 0,0 2,0 2,-3 z m -25,-31 c -10,0 -20,0 -30,0 9,-13 17,-27 26,-41 1,14 3,28 4,41 z"
   id="path117" />
        </g>
       </g>
       <g
   class="com.sun.star.drawing.ClosedBezierShape"
   id="g127">
        <g
   id="id11">
         <rect
   class="BoundingBox"
   stroke="none"
   fill="none"
   x="3409"
   y="3740"
   width="35"
   height="61"
   id="rect122" />
         <path
   fill="#000000"
   stroke="none"
   d="m 3442,3800 c 0,-1 0,-2 0,-3 -1,0 -2,0 -3,0 -9,0 -9,-1 -9,-4 0,-17 0,-34 0,-50 0,-3 0,-3 -3,-3 -6,6 -14,6 -18,6 0,1 0,2 0,3 2,0 9,0 13,-2 0,15 0,30 0,46 0,3 0,4 -9,4 -1,0 -2,0 -3,0 0,1 0,2 0,3 5,0 11,0 16,-1 6,1 11,1 16,1 z"
   id="path124" />
        </g>
       </g>
       <g
   class="com.sun.star.drawing.ClosedBezierShape"
   id="g134">
        <g
   id="id12">
         <rect
   class="BoundingBox"
   stroke="none"
   fill="none"
   x="2967"
   y="4013"
   width="90"
   height="94"
   id="rect129" />
         <path
   fill="#000000"
   stroke="none"
   d="m 3056,4103 c 0,-1 -1,-1 -3,-1 -8,0 -8,-1 -8,-5 -3,-27 -6,-53 -8,-80 -1,-3 -1,-3 -3,-3 -1,0 -2,1 -3,2 -15,25 -30,50 -45,75 -5,9 -10,10 -16,11 -2,0 -3,0 -3,2 0,1 1,1 2,1 4,0 8,0 11,0 5,0 9,0 13,0 1,0 3,0 3,-2 0,-1 -1,-1 -3,-1 -3,-1 -5,-2 -5,-5 0,-2 0,-3 1,-5 1,-1 1,-1 10,-16 11,0 22,0 33,0 0,3 2,20 2,21 0,4 -7,5 -10,5 -1,0 -3,0 -3,2 0,1 1,1 2,1 5,0 11,0 16,0 3,0 11,0 15,0 1,0 2,0 2,-2 z m -25,-31 c -10,0 -20,0 -30,0 9,-14 17,-28 26,-42 1,14 3,28 4,42 z"
   id="path131" />
        </g>
       </g>
       <g
   class="com.sun.star.drawing.ClosedBezierShape"
   id="g141">
        <g
   id="id13">
         <rect
   class="BoundingBox"
   stroke="none"
   fill="none"
   x="3065"
   y="4077"
   width="42"
   height="61"
   id="rect136" />
         <path
   fill="#000000"
   stroke="none"
   d="m 3106,4120 c -2,0 -3,0 -4,0 0,3 -1,8 -2,9 0,0 -8,0 -9,0 -5,0 -11,0 -16,0 9,-8 12,-11 17,-15 8,-5 14,-11 14,-19 0,-11 -10,-18 -22,-18 -11,0 -18,8 -18,17 0,4 4,5 4,5 3,0 5,-2 5,-5 0,-2 0,-5 -5,-5 3,-6 9,-8 13,-8 9,0 14,7 14,14 0,7 -6,14 -9,17 -7,7 -14,14 -22,21 0,1 0,1 0,4 12,0 24,0 37,0 1,-6 2,-11 3,-17 z"
   id="path138" />
        </g>
       </g>
       <g
   class="com.sun.star.drawing.ClosedBezierShape"
   id="g148">
        <g
   id="id14">
         <rect
   class="BoundingBox"
   stroke="none"
   fill="none"
   x="3300"
   y="4013"
   width="90"
   height="94"
   id="rect143" />
         <path
   fill="#000000"
   stroke="none"
   d="m 3389,4103 c 0,-1 -1,-1 -3,-1 -8,0 -8,-1 -8,-5 -3,-27 -5,-53 -8,-80 -1,-3 -1,-3 -3,-3 -2,0 -2,1 -3,2 -15,25 -30,50 -45,75 -5,9 -10,10 -16,11 -1,0 -3,0 -3,2 0,1 1,1 2,1 4,0 7,0 11,0 5,0 9,0 13,0 1,0 3,0 3,-2 0,-1 -1,-1 -3,-1 -3,-1 -6,-2 -6,-5 0,-2 1,-3 2,-5 1,-1 1,-1 10,-16 11,0 22,0 33,0 0,3 1,20 1,21 0,4 -6,5 -9,5 -2,0 -3,0 -3,2 0,1 1,1 2,1 5,0 11,0 16,0 3,0 11,0 15,0 0,0 2,0 2,-2 z m -25,-31 c -10,0 -20,0 -30,0 9,-14 17,-28 26,-42 1,14 3,28 4,42 z"
   id="path145" />
        </g>
       </g>
       <g
   class="com.sun.star.drawing.ClosedBezierShape"
   id="g155">
        <g
   id="id15">
         <rect
   class="BoundingBox"
   stroke="none"
   fill="none"
   x="3397"
   y="4077"
   width="44"
   height="63"
   id="rect150" />
         <path
   fill="#000000"
   stroke="none"
   d="m 3439,4121 c 0,-7 -6,-14 -16,-15 10,-4 13,-11 13,-16 0,-7 -8,-13 -18,-13 -10,0 -17,5 -17,12 0,3 1,5 4,5 3,0 5,-2 5,-5 0,-2 -2,-4 -5,-4 4,-4 10,-5 13,-5 4,0 10,2 10,10 0,4 -2,7 -4,10 -3,4 -5,4 -10,4 -2,0 -2,0 -3,0 0,1 -1,1 -1,2 0,1 1,1 2,1 2,0 4,0 6,0 7,0 12,5 12,14 0,11 -7,15 -12,15 -4,0 -12,-1 -16,-6 5,-1 6,-4 6,-6 0,-3 -3,-4 -5,-4 -3,0 -5,1 -5,5 0,8 9,14 20,14 13,0 21,-9 21,-18 z"
   id="path152" />
        </g>
       </g>
      </g>
      <g
   class="com.sun.star.drawing.CustomShape"
   id="g166">
       <g
   id="id16">
        <rect
   class="BoundingBox"
   stroke="none"
   fill="none"
   x="3754"
   y="1718"
   width="3038"
   height="3038"
   id="rect159" />
        <path
   fill="#ffff6d"
   fill-opacity="0.478"
   stroke="none"
   d="m 4272,1736 v 0 c -88,0 -174,23 -250,67 -76,44 -139,107 -183,183 -44,76 -67,162 -67,250 v 2000 1 c 0,88 23,174 67,250 44,76 107,139 183,183 76,44 162,67 250,67 h 2000 1 c 88,0 174,-23 250,-67 76,-44 139,-107 183,-183 44,-76 67,-162 67,-250 v -2001 0 0 c 0,-88 -23,-174 -67,-250 -44,-76 -107,-139 -183,-183 -76,-44 -162,-67 -250,-67 z"
   id="path161" />
        <path
   fill="none"
   stroke="#ffff6d"
   stroke-width="35"
   stroke-linejoin="round"
   d="m 4272,1736 v 0 c -88,0 -174,23 -250,67 -76,44 -139,107 -183,183 -44,76 -67,162 -67,250 v 2000 1 c 0,88 23,174 67,250 44,76 107,139 183,183 76,44 162,67 250,67 h 2000 1 c 88,0 174,-23 250,-67 76,-44 139,-107 183,-183 44,-76 67,-162 67,-250 v -2001 0 0 c 0,-88 -23,-174 -67,-250 -44,-76 -107,-139 -183,-183 -76,-44 -162,-67 -250,-67 z"
   id="path163" />
       </g>
      </g>
      <g
   class="com.sun.star.drawing.CustomShape"
   id="g175">
       <g
   id="id17">
        <rect
   class="BoundingBox"
   stroke="none"
   fill="none"
   x="635"
   y="2290"
   width="2038"
   height="2028"
   id="rect168" />
        <path
   fill="#ffff6d"
   fill-opacity="0.502"
   stroke="none"
   d="m 984,2308 h 1 c -58,0 -116,15 -166,44 -51,30 -92,71 -122,122 -29,50 -44,108 -44,166 v 1327 0 c 0,58 15,116 44,166 30,51 71,92 122,122 50,29 108,44 166,44 h 1337 v 0 c 58,0 116,-15 166,-44 51,-30 92,-71 122,-122 29,-50 44,-108 44,-166 v -1328 1 0 c 0,-58 -15,-116 -44,-166 -30,-51 -71,-92 -122,-122 -50,-29 -108,-44 -166,-44 z"
   id="path170" />
        <path
   fill="none"
   stroke="#ffff6d"
   stroke-width="35"
   stroke-linejoin="round"
   d="m 984,2308 h 1 c -58,0 -116,15 -166,44 -51,30 -92,71 -122,122 -29,50 -44,108 -44,166 v 1327 0 c 0,58 15,116 44,166 30,51 71,92 122,122 50,29 108,44 166,44 h 1337 v 0 c 58,0 116,-15 166,-44 51,-30 92,-71 122,-122 29,-50 44,-108 44,-166 v -1328 1 0 c 0,-58 -15,-116 -44,-166 -30,-51 -71,-92 -122,-122 -50,-29 -108,-44 -166,-44 z"
   id="path172" />
       </g>
      </g>
      <g
   class="Group"
   id="g184">
       <g
   class="com.sun.star.drawing.ClosedBezierShape"
   id="g182">
        <g
   id="id18">
         <rect
   class="BoundingBox"
   stroke="none"
   fill="none"
   x="1330"
   y="2957"
   width="617"
   height="580"
   id="rect177" />
         <path
   fill="#000000"
   stroke="none"
   d="m 1946,2968 c 0,-9 -5,-10 -12,-10 -21,0 -46,1 -67,1 -29,0 -59,-1 -84,-1 -5,0 -18,0 -18,17 0,7 9,8 13,8 6,0 30,4 30,21 0,14 -18,36 -24,41 -65,74 -130,149 -196,225 -29,-84 -60,-168 -91,-252 -7,-12 -5,-9 -7,-14 0,-21 43,-21 50,-21 12,0 23,0 23,-15 0,-10 -12,-10 -16,-10 -34,0 -70,1 -105,1 -22,0 -74,-1 -94,-1 -5,0 -17,0 -17,17 0,8 10,8 18,8 52,0 57,9 64,29 34,93 69,186 103,278 0,4 4,12 4,16 0,1 -35,137 -38,154 -12,46 -12,48 -79,48 -17,0 -24,0 -24,17 0,10 8,7 12,10 36,-1 70,-1 106,-3 36,2 72,2 109,3 6,0 17,0 17,-17 0,-10 -7,-10 -24,-10 -11,0 -17,0 -31,-2 -21,0 -24,-3 -24,-12 0,-7 7,-36 12,-53 8,-41 19,-81 27,-122 5,-13 5,-17 14,-24 69,-80 139,-161 210,-241 3,-4 7,-7 12,-12 26,-26 53,-54 110,-59 10,-1 17,-1 17,-15 z"
   id="path179" />
        </g>
       </g>
      </g>
      <g
   class="com.sun.star.drawing.CustomShape"
   id="g193">
       <g
   id="id19">
        <rect
   class="BoundingBox"
   stroke="none"
   fill="none"
   x="834"
   y="2466"
   width="229"
   height="229"
   id="rect186" />
        <path
   fill="#ff860d"
   stroke="none"
   d="m 1061,2580 c 0,20 -5,39 -15,57 -10,17 -24,31 -41,41 -18,10 -37,15 -57,15 -20,0 -39,-5 -56,-15 -18,-10 -32,-24 -42,-41 -10,-18 -15,-37 -15,-57 0,-20 5,-39 15,-56 10,-18 24,-32 41,-42 18,-10 37,-15 57,-15 20,0 39,5 57,15 17,10 31,24 41,42 10,17 15,36 15,56 z"
   id="path188" />
        <path
   fill="none"
   stroke="#3465a4"
   d="m 1061,2580 c 0,20 -5,39 -15,57 -10,17 -24,31 -41,41 -18,10 -37,15 -57,15 -20,0 -39,-5 -56,-15 -18,-10 -32,-24 -42,-41 -10,-18 -15,-37 -15,-57 0,-20 5,-39 15,-56 10,-18 24,-32 41,-42 18,-10 37,-15 57,-15 20,0 39,5 57,15 17,10 31,24 41,42 10,17 15,36 15,56 z"
   id="path190" />
       </g>
      </g>
      <g
   class="Group"
   id="g258">
       <g
   class="com.sun.star.drawing.ClosedBezierShape"
   id="g200">
        <g
   id="id20">
         <rect
   class="BoundingBox"
   stroke="none"
   fill="none"
   x="808"
   y="1809"
   width="81"
   height="342"
   id="rect195" />
         <path
   fill="#000000"
   stroke="none"
   d="m 888,2145 c 0,-1 0,-1 -6,-7 -42,-42 -54,-107 -54,-159 0,-59 13,-119 56,-161 4,-4 4,-4 4,-6 0,-2 -1,-3 -3,-3 -4,0 -35,23 -55,66 -18,38 -22,76 -22,104 0,26 4,68 23,106 20,42 50,64 54,64 2,0 3,-1 3,-4 z"
   id="path197" />
        </g>
       </g>
       <g
   class="com.sun.star.drawing.ClosedBezierShape"
   id="g207">
        <g
   id="id21">
         <rect
   class="BoundingBox"
   stroke="none"
   fill="none"
   x="918"
   y="1913"
   width="143"
   height="156"
   id="rect202" />
         <path
   fill="#000000"
   stroke="none"
   d="m 939,2044 c -1,5 -3,13 -3,15 0,5 4,8 10,8 4,0 10,-2 13,-8 0,-2 12,-48 14,-55 2,-10 8,-35 10,-43 1,-5 11,-21 20,-29 2,-2 13,-11 28,-11 9,0 9,3 13,5 -9,1 -17,9 -17,18 0,6 4,12 14,12 9,0 18,-8 18,-20 0,-12 -11,-22 -28,-22 -23,0 -39,16 -45,26 -3,-15 -15,-26 -31,-26 -16,0 -23,13 -26,19 -6,12 -11,32 -11,33 0,3 3,3 4,3 4,0 4,0 6,-7 6,-25 13,-41 26,-41 6,0 11,3 11,16 0,7 -1,11 -6,28 -7,27 -13,53 -20,79 z"
   id="path204" />
        </g>
       </g>
       <g
   class="com.sun.star.drawing.ClosedBezierShape"
   id="g214">
        <g
   id="id22">
         <rect
   class="BoundingBox"
   stroke="none"
   fill="none"
   x="1082"
   y="1949"
   width="121"
   height="169"
   id="rect209" />
         <path
   fill="#000000"
   stroke="none"
   d="m 1140,1957 c 0,-2 1,-3 1,-4 0,-1 -1,-3 -4,-3 -5,0 -25,2 -30,2 -2,1 -6,1 -6,6 0,3 4,3 7,3 10,0 10,1 10,3 0,2 0,3 -1,6 -11,45 -22,90 -33,134 -1,5 -1,5 -1,6 0,3 3,7 8,7 7,0 10,-4 11,-10 1,-1 10,-43 11,-45 18,1 32,6 32,19 0,1 0,2 -1,5 -1,3 -1,5 -1,7 0,17 15,24 26,24 23,0 21,-24 31,-36 0,-3 -3,-2 -4,-3 -4,0 -4,1 -5,6 -3,10 -10,27 -21,27 -7,0 -9,-7 -9,-13 0,-3 0,-4 2,-10 0,-1 1,-5 1,-8 0,-21 -29,-24 -40,-25 7,-4 17,-12 21,-16 12,-11 25,-22 37,-22 3,0 6,1 8,3 -10,2 -12,10 -12,13 0,5 4,9 9,9 7,0 14,-6 14,-15 0,-8 -5,-17 -18,-17 -13,0 -26,10 -39,21 -10,9 -18,17 -28,21 8,-32 16,-64 24,-95 z"
   id="path211" />
        </g>
       </g>
       <g
   class="com.sun.star.drawing.ClosedBezierShape"
   id="g221">
        <g
   id="id23">
         <rect
   class="BoundingBox"
   stroke="none"
   fill="none"
   x="1264"
   y="2027"
   width="42"
   height="104"
   id="rect216" />
         <path
   fill="#000000"
   stroke="none"
   d="m 1305,2064 c 0,-23 -9,-36 -22,-36 -12,0 -19,8 -19,18 0,9 7,18 19,18 4,0 8,-1 12,-4 1,-1 1,-1 2,-1 0,1 0,0 0,5 0,25 -12,46 -23,57 -3,3 -4,4 -4,5 0,3 1,4 3,4 4,0 32,-27 32,-66 z"
   id="path218" />
        </g>
       </g>
       <g
   class="com.sun.star.drawing.ClosedBezierShape"
   id="g228">
        <g
   id="id24">
         <rect
   class="BoundingBox"
   stroke="none"
   fill="none"
   x="1402"
   y="1913"
   width="137"
   height="156"
   id="rect223" />
         <path
   fill="#000000"
   stroke="none"
   d="m 1525,1934 c -6,0 -11,0 -16,5 -4,6 -5,12 -5,14 0,8 5,11 12,11 10,0 20,-7 20,-21 0,-16 -17,-29 -41,-29 -47,0 -93,48 -93,96 0,31 21,57 56,57 50,0 79,-36 79,-39 0,-2 -2,-5 -4,-5 -2,0 -3,1 -5,4 -27,34 -65,34 -69,34 -21,0 -31,-18 -31,-38 0,-14 7,-47 18,-68 11,-19 30,-34 50,-34 12,0 24,5 29,13 z"
   id="path225" />
        </g>
       </g>
       <g
   class="com.sun.star.drawing.ClosedBezierShape"
   id="g235">
        <g
   id="id25">
         <rect
   class="BoundingBox"
   stroke="none"
   fill="none"
   x="1555"
   y="1949"
   width="121"
   height="169"
   id="rect230" />
         <path
   fill="#000000"
   stroke="none"
   d="m 1614,1957 c 0,-2 1,-3 1,-4 0,-1 -1,-3 -4,-3 -5,0 -26,2 -32,2 -2,1 -4,1 -4,6 0,3 2,3 5,3 12,0 12,1 12,3 0,2 0,3 -1,6 -11,45 -23,90 -34,134 -1,5 -1,5 -1,6 0,3 3,7 9,7 6,0 9,-4 10,-10 0,-1 11,-43 12,-45 17,1 31,6 31,19 0,1 0,2 0,5 -1,3 -1,5 -1,7 0,17 14,24 25,24 24,0 21,-24 31,-36 0,-3 -3,-3 -4,-3 -3,0 -3,1 -5,6 -3,10 -9,27 -21,27 -6,0 -8,-7 -8,-13 0,-3 0,-4 2,-10 0,-1 1,-5 1,-8 0,-21 -30,-24 -40,-25 7,-4 16,-12 20,-16 13,-11 24,-22 38,-22 3,0 6,1 8,3 -10,2 -13,10 -13,13 0,5 4,9 10,9 7,0 14,-6 14,-15 0,-8 -6,-17 -19,-17 -14,0 -26,10 -38,21 -10,9 -19,17 -29,21 8,-32 17,-64 25,-95 z"
   id="path232" />
        </g>
       </g>
       <g
   class="com.sun.star.drawing.ClosedBezierShape"
   id="g242">
        <g
   id="id26">
         <rect
   class="BoundingBox"
   stroke="none"
   fill="none"
   x="1728"
   y="1809"
   width="82"
   height="342"
   id="rect237" />
         <path
   fill="#000000"
   stroke="none"
   d="m 1808,1979 c 0,-26 -4,-68 -23,-106 -20,-42 -50,-64 -54,-64 -2,0 -3,1 -3,3 0,2 0,2 6,9 35,33 54,87 54,158 0,58 -13,118 -56,161 -4,4 -4,4 -4,5 0,3 1,4 3,4 4,0 35,-23 55,-66 18,-38 22,-76 22,-104 z"
   id="path239" />
        </g>
       </g>
       <g
   class="com.sun.star.drawing.ClosedBezierShape"
   id="g249">
        <g
   id="id27">
         <rect
   class="BoundingBox"
   stroke="none"
   fill="none"
   x="1072"
   y="1746"
   width="161"
   height="151"
   id="rect244" />
         <path
   fill="#000000"
   stroke="none"
   d="m 1232,1748 c 0,-1 -2,-2 -3,-2 -6,0 -12,1 -18,1 -7,0 -15,-1 -22,-1 -1,0 -4,0 -4,5 0,1 2,2 3,2 1,0 8,1 8,5 0,4 -5,9 -7,11 -16,19 -33,39 -50,58 -8,-22 -15,-44 -23,-65 -3,-3 -2,-3 -3,-4 0,-5 11,-5 14,-5 3,0 5,0 5,-5 0,-2 -3,-2 -4,-2 -8,0 -18,1 -27,1 -6,0 -19,-1 -25,-1 -1,0 -4,0 -4,5 0,2 3,2 5,2 14,0 14,2 16,7 10,25 18,48 27,73 l 1,3 c 0,1 -9,36 -10,40 -3,12 -3,13 -20,13 -4,0 -6,0 -6,5 0,2 2,1 2,2 10,0 19,-1 29,-1 8,0 18,1 28,1 1,0 4,0 4,-5 0,-2 -2,-2 -7,-2 -2,0 -4,0 -8,-1 -5,0 -5,0 -5,-3 0,-2 1,-10 2,-13 3,-11 6,-22 8,-32 1,-4 1,-4 3,-6 18,-21 36,-42 54,-63 2,-1 2,-2 3,-3 7,-7 14,-14 29,-15 3,-1 5,-1 5,-5 z"
   id="path246" />
        </g>
       </g>
       <g
   class="com.sun.star.drawing.ClosedBezierShape"
   id="g256">
        <g
   id="id28">
         <rect
   class="BoundingBox"
   stroke="none"
   fill="none"
   x="1549"
   y="1751"
   width="161"
   height="151"
   id="rect251" />
         <path
   fill="#000000"
   stroke="none"
   d="m 1709,1753 c 0,-1 -2,-2 -3,-2 -6,0 -12,1 -18,1 -7,0 -15,-1 -22,-1 -1,0 -4,0 -4,5 0,1 2,2 3,2 1,0 8,1 8,5 0,4 -5,9 -7,11 -16,19 -33,39 -50,58 -8,-22 -15,-44 -23,-65 -3,-3 -2,-3 -3,-4 0,-5 11,-5 14,-5 3,0 5,0 5,-5 0,-2 -3,-2 -4,-2 -8,0 -18,1 -27,1 -6,0 -19,-1 -25,-1 -1,0 -4,0 -4,5 0,2 3,2 5,2 14,0 14,2 16,7 10,25 18,48 27,73 l 1,3 c 0,1 -9,36 -10,40 -3,12 -3,13 -20,13 -4,0 -6,0 -6,5 0,2 2,1 2,2 10,0 19,-1 29,-1 8,0 18,1 28,1 1,0 4,0 4,-5 0,-2 -2,-2 -7,-2 -2,0 -4,0 -8,-1 -5,0 -5,0 -5,-3 0,-2 1,-10 2,-13 3,-11 6,-22 8,-32 1,-4 1,-4 3,-6 18,-21 36,-42 54,-63 2,-1 2,-2 3,-3 7,-7 14,-14 29,-15 3,-1 5,-1 5,-5 z"
   id="path253" />
        </g>
       </g>
      </g>
      <g
   class="com.sun.star.drawing.ConnectorShape"
   id="g265">
       <g
   id="id29">
        <rect
   class="BoundingBox"
   stroke="none"
   fill="none"
   x="930"
   y="2131"
   width="397"
   height="356"
   id="rect260" />
        <path
   fill="none"
   stroke="#ff860d"
   stroke-width="35"
   stroke-linejoin="round"
   d="m 1308,2149 v 159 H 948 v 160"
   id="path262" />
       </g>
      </g>
      <g
   class="Group"
   id="g331">
       <g
   class="com.sun.star.drawing.CustomShape"
   id="g274">
        <g
   id="id30">
         <rect
   class="BoundingBox"
   stroke="none"
   fill="none"
   x="5350"
   y="3285"
   width="1242"
   height="1263"
   id="rect267" />
         <path
   fill="#ff4000"
   fill-opacity="0.4"
   stroke="none"
   d="m 5568,3303 h 1 c -35,0 -70,9 -101,27 -30,18 -55,43 -73,73 -18,31 -27,66 -27,101 v 824 0 c 0,35 9,70 27,101 18,30 43,55 73,73 31,18 66,27 101,27 h 803 v 0 c 35,0 70,-9 101,-27 30,-18 55,-43 73,-73 18,-31 27,-66 27,-101 v -825 1 0 c 0,-35 -9,-70 -27,-101 -18,-30 -43,-55 -73,-73 -31,-18 -66,-27 -101,-27 z"
   id="path269" />
         <path
   fill="none"
   stroke="#ed4c05"
   stroke-width="35"
   stroke-linejoin="round"
   d="m 5568,3303 h 1 c -35,0 -70,9 -101,27 -30,18 -55,43 -73,73 -18,31 -27,66 -27,101 v 824 0 c 0,35 9,70 27,101 18,30 43,55 73,73 31,18 66,27 101,27 h 803 v 0 c 35,0 70,-9 101,-27 30,-18 55,-43 73,-73 18,-31 27,-66 27,-101 v -825 1 0 c 0,-35 -9,-70 -27,-101 -18,-30 -43,-55 -73,-73 -31,-18 -66,-27 -101,-27 z"
   id="path271" />
        </g>
       </g>
       <g
   class="com.sun.star.drawing.CustomShape"
   id="g283">
        <g
   id="id31">
         <rect
   class="BoundingBox"
   stroke="none"
   fill="none"
   x="3974"
   y="3292"
   width="1253"
   height="1263"
   id="rect276" />
         <path
   fill="#ffff6d"
   fill-opacity="0.478"
   stroke="none"
   d="m 4194,3310 h 1 c -36,0 -71,9 -102,27 -30,18 -56,44 -74,74 -18,31 -27,66 -27,102 v 820 0 c 0,36 9,71 27,102 18,30 44,56 74,74 31,18 66,27 102,27 h 810 v 0 c 36,0 71,-9 102,-27 30,-18 56,-44 74,-74 18,-31 27,-66 27,-102 v -821 1 0 c 0,-36 -9,-71 -27,-102 -18,-30 -44,-56 -74,-74 -31,-18 -66,-27 -102,-27 z"
   id="path278" />
         <path
   fill="none"
   stroke="#ffff6d"
   stroke-width="35"
   stroke-linejoin="round"
   d="m 4194,3310 h 1 c -36,0 -71,9 -102,27 -30,18 -56,44 -74,74 -18,31 -27,66 -27,102 v 820 0 c 0,36 9,71 27,102 18,30 44,56 74,74 31,18 66,27 102,27 h 810 v 0 c 36,0 71,-9 102,-27 30,-18 56,-44 74,-74 18,-31 27,-66 27,-102 v -821 1 0 c 0,-36 -9,-71 -27,-102 -18,-30 -44,-56 -74,-74 -31,-18 -66,-27 -102,-27 z"
   id="path280" />
        </g>
       </g>
       <g
   class="com.sun.star.drawing.CustomShape"
   id="g292">
        <g
   id="id32">
         <rect
   class="BoundingBox"
   stroke="none"
   fill="none"
   x="3953"
   y="1937"
   width="1243"
   height="1256"
   id="rect285" />
         <path
   fill="#813709"
   fill-opacity="0.6"
   stroke="none"
   d="m 4172,1955 v 0 c -35,0 -70,9 -101,27 -30,18 -55,43 -73,74 -18,30 -27,65 -27,100 v 817 0 c 0,35 9,70 27,101 18,30 43,55 73,73 31,18 66,27 101,27 h 804 v 0 c 35,0 70,-9 101,-27 30,-18 55,-43 73,-73 18,-31 27,-66 27,-101 v -817 0 0 c 0,-35 -9,-70 -27,-100 -18,-31 -43,-56 -73,-74 -31,-18 -66,-27 -101,-27 z"
   id="path287" />
         <path
   fill="none"
   stroke="#813709"
   stroke-width="35"
   stroke-linejoin="round"
   d="m 4172,1955 v 0 c -35,0 -70,9 -101,27 -30,18 -55,43 -73,74 -18,30 -27,65 -27,100 v 817 0 c 0,35 9,70 27,101 18,30 43,55 73,73 31,18 66,27 101,27 h 804 v 0 c 35,0 70,-9 101,-27 30,-18 55,-43 73,-73 18,-31 27,-66 27,-101 v -817 0 0 c 0,-35 -9,-70 -27,-100 -18,-31 -43,-56 -73,-74 -31,-18 -66,-27 -101,-27 z"
   id="path289" />
        </g>
       </g>
       <g
   class="com.sun.star.drawing.ClosedBezierShape"
   id="g299">
        <g
   id="id33">
         <rect
   class="BoundingBox"
   stroke="none"
   fill="none"
   x="5739"
   y="2317"
   width="422"
   height="355"
   id="rect294" />
         <path
   fill="#000000"
   stroke="none"
   d="m 6160,2324 c -3,-4 0,-7 -6,-7 -15,0 -34,0 -46,0 -21,0 -39,0 -58,0 -3,0 -9,0 -9,10 0,3 0,6 3,6 6,0 21,3 21,18 0,6 -6,12 -9,15 -27,31 -55,61 -82,91 -15,-33 -31,-67 -43,-100 -3,-3 -3,-6 -3,-9 0,-3 9,-12 31,-15 6,0 9,0 9,-9 0,-7 -6,-7 -6,-7 -22,0 -43,0 -64,0 -16,0 -46,0 -58,0 -3,0 -9,0 -9,10 0,6 6,6 9,6 33,0 36,6 39,18 22,46 40,94 61,143 -36,40 -73,79 -106,116 -3,3 -3,3 -6,6 -28,30 -52,36 -77,36 -6,3 -12,3 -12,12 3,0 0,7 6,7 19,0 34,-4 49,-4 18,0 40,4 58,4 3,0 9,0 9,-13 0,-3 -6,-3 -6,-6 -6,0 -21,0 -21,-15 0,-6 6,-15 15,-21 15,-19 33,-37 52,-58 15,-15 30,-34 46,-52 15,43 33,85 51,125 0,3 0,6 3,9 0,3 -12,12 -30,12 -6,3 -9,3 -9,12 0,7 6,7 6,7 21,0 43,-4 64,-4 12,0 43,4 58,4 3,0 9,0 9,-13 0,-6 -6,-6 -9,-6 -34,0 -37,0 -46,-21 -21,-52 -43,-107 -64,-158 34,-37 89,-101 104,-113 15,-12 33,-24 64,-27 9,0 12,0 12,-9 z"
   id="path296" />
        </g>
       </g>
       <g
   class="com.sun.star.drawing.ClosedBezierShape"
   id="g306">
        <g
   id="id34">
         <rect
   class="BoundingBox"
   stroke="none"
   fill="none"
   x="4443"
   y="2338"
   width="236"
   height="355"
   id="rect301" />
         <path
   fill="#000000"
   stroke="none"
   d="m 4678,2345 c 0,-6 -6,-6 -6,-6 -22,0 -46,0 -67,0 -25,0 -46,0 -70,0 0,0 -10,0 -10,9 0,6 7,6 16,6 21,0 33,0 33,9 0,3 0,6 0,9 -24,95 -45,186 -70,280 -3,19 -3,22 -46,22 -12,0 -15,0 -15,12 0,6 6,6 6,6 25,0 46,-3 67,-3 25,0 46,3 70,3 3,0 10,0 10,-12 0,-6 -3,-6 -16,-6 -9,0 -12,0 -21,0 -12,0 -12,-3 -12,-7 0,-6 0,-9 0,-15 24,-91 46,-182 70,-274 3,-18 6,-24 46,-24 12,0 15,0 15,-9 z"
   id="path303" />
        </g>
       </g>
       <g
   class="com.sun.star.drawing.ClosedBezierShape"
   id="g313">
        <g
   id="id35">
         <rect
   class="BoundingBox"
   stroke="none"
   fill="none"
   x="4406"
   y="3714"
   width="374"
   height="355"
   id="rect308" />
         <path
   fill="#000000"
   stroke="none"
   d="m 4779,3721 c 0,-6 -3,-6 -7,-6 -12,0 -27,0 -39,0 -18,0 -37,0 -52,0 -3,0 -12,0 -12,9 0,6 6,6 9,6 3,0 18,3 18,12 0,9 -12,24 -15,27 -40,46 -79,92 -119,137 -18,-51 -37,-103 -55,-155 -3,-6 -3,-6 -3,-9 0,-12 25,-12 31,-12 6,0 12,0 12,-9 0,-6 -6,-6 -9,-6 -22,0 -43,0 -64,0 -13,0 -43,0 -58,0 -3,0 -9,0 -9,9 0,6 6,6 12,6 30,0 33,6 36,18 22,58 43,116 64,171 0,3 0,9 0,9 0,3 -18,85 -21,94 -6,30 -6,30 -49,30 -9,0 -12,0 -12,13 0,3 3,3 6,3 21,0 43,0 64,0 22,0 46,0 67,0 3,0 9,0 9,-9 0,-7 -3,-7 -15,-7 -6,0 -9,0 -18,0 -12,0 -15,-3 -15,-9 0,-3 6,-21 9,-33 6,-24 9,-49 15,-73 3,-9 3,-9 9,-15 43,-49 86,-98 128,-150 0,0 3,-3 6,-6 16,-15 34,-33 67,-36 7,0 10,0 10,-9 z"
   id="path310" />
        </g>
       </g>
       <g
   class="com.sun.star.drawing.ClosedBezierShape"
   id="g320">
        <g
   id="id36">
         <rect
   class="BoundingBox"
   stroke="none"
   fill="none"
   x="5797"
   y="3745"
   width="343"
   height="355"
   id="rect315" />
         <path
   fill="#000000"
   stroke="none"
   d="m 6139,3748 c 0,-3 -3,-3 -16,-3 -70,0 -143,0 -213,0 -12,0 -12,0 -15,9 -13,34 -22,64 -31,95 0,3 0,6 0,6 0,3 0,6 6,6 3,0 3,-3 6,-6 19,-61 46,-95 125,-95 28,0 55,0 83,0 -95,110 -189,216 -284,323 0,3 -3,9 -3,9 0,6 3,6 12,6 77,0 150,0 223,0 12,0 12,0 15,-12 12,-37 25,-73 37,-113 0,-3 3,-6 3,-9 0,0 -3,-3 -6,-3 -6,0 -6,0 -9,12 -25,70 -46,107 -135,107 -30,0 -58,0 -88,0 98,-107 192,-216 287,-323 0,-3 3,-6 3,-9 z"
   id="path317" />
        </g>
       </g>
       <g
   class="com.sun.star.drawing.CustomShape"
   id="g329">
        <g
   id="id37">
         <rect
   class="BoundingBox"
   stroke="none"
   fill="none"
   x="5319"
   y="1918"
   width="1265"
   height="1264"
   id="rect322" />
         <path
   fill="#3465a4"
   fill-opacity="0.341"
   stroke="none"
   d="m 5541,1936 h 1 c -36,0 -72,9 -103,27 -31,18 -57,44 -75,75 -18,31 -27,67 -27,103 v 817 1 c 0,35 9,71 27,102 18,31 44,57 75,75 31,18 67,27 103,27 h 818 1 c 35,0 71,-9 102,-27 31,-18 57,-44 75,-75 18,-31 27,-67 27,-102 v -819 1 0 c 0,-36 -9,-72 -27,-103 -18,-31 -44,-57 -75,-75 -31,-18 -67,-27 -102,-27 z"
   id="path324" />
         <path
   fill="none"
   stroke="#3465a4"
   stroke-width="35"
   stroke-linejoin="round"
   d="m 5541,1936 h 1 c -36,0 -72,9 -103,27 -31,18 -57,44 -75,75 -18,31 -27,67 -27,103 v 817 1 c 0,35 9,71 27,102 18,31 44,57 75,75 31,18 67,27 103,27 h 818 1 c 35,0 71,-9 102,-27 31,-18 57,-44 75,-75 18,-31 27,-67 27,-102 v -819 1 0 c 0,-36 -9,-72 -27,-103 -18,-31 -44,-57 -75,-75 -31,-18 -67,-27 -102,-27 z"
   id="path326" />
        </g>
       </g>
      </g>
      <g
   class="com.sun.star.drawing.CustomShape"
   id="g340">
       <g
   id="id38">
        <rect
   class="BoundingBox"
   stroke="none"
   fill="none"
   x="4071"
   y="2033"
   width="229"
   height="229"
   id="rect333" />
        <path
   fill="#5b277d"
   stroke="none"
   d="m 4298,2147 c 0,20 -5,39 -15,57 -10,17 -24,31 -41,41 -18,10 -37,15 -57,15 -20,0 -39,-5 -56,-15 -18,-10 -32,-24 -42,-41 -10,-18 -15,-37 -15,-57 0,-20 5,-39 15,-56 10,-18 24,-32 42,-42 17,-10 36,-15 56,-15 20,0 39,5 57,15 17,10 31,24 41,42 10,17 15,36 15,56 z"
   id="path335" />
        <path
   fill="none"
   stroke="#3465a4"
   d="m 4298,2147 c 0,20 -5,39 -15,57 -10,17 -24,31 -41,41 -18,10 -37,15 -57,15 -20,0 -39,-5 -56,-15 -18,-10 -32,-24 -42,-41 -10,-18 -15,-37 -15,-57 0,-20 5,-39 15,-56 10,-18 24,-32 42,-42 17,-10 36,-15 56,-15 20,0 39,5 57,15 17,10 31,24 41,42 10,17 15,36 15,56 z"
   id="path337" />
       </g>
      </g>
      <g
   class="com.sun.star.drawing.CustomShape"
   id="g349">
       <g
   id="id39">
        <rect
   class="BoundingBox"
   stroke="none"
   fill="none"
   x="5435"
   y="2033"
   width="229"
   height="229"
   id="rect342" />
        <path
   fill="#3465a4"
   stroke="none"
   d="m 5662,2147 c 0,20 -5,39 -15,57 -10,17 -24,31 -41,41 -18,10 -37,15 -57,15 -20,0 -39,-5 -56,-15 -18,-10 -32,-24 -42,-41 -10,-18 -15,-37 -15,-57 0,-20 5,-39 15,-56 10,-18 24,-32 42,-42 17,-10 36,-15 56,-15 20,0 39,5 57,15 17,10 31,24 41,42 10,17 15,36 15,56 z"
   id="path344" />
        <path
   fill="none"
   stroke="#3465a4"
   d="m 5662,2147 c 0,20 -5,39 -15,57 -10,17 -24,31 -41,41 -18,10 -37,15 -57,15 -20,0 -39,-5 -56,-15 -18,-10 -32,-24 -42,-41 -10,-18 -15,-37 -15,-57 0,-20 5,-39 15,-56 10,-18 24,-32 42,-42 17,-10 36,-15 56,-15 20,0 39,5 57,15 17,10 31,24 41,42 10,17 15,36 15,56 z"
   id="path346" />
       </g>
      </g>
      <g
   class="com.sun.star.drawing.CustomShape"
   id="g358">
       <g
   id="id40">
        <rect
   class="BoundingBox"
   stroke="none"
   fill="none"
   x="4071"
   y="3397"
   width="229"
   height="229"
   id="rect351" />
        <path
   fill="#ff860d"
   stroke="none"
   d="m 4298,3511 c 0,20 -5,39 -15,57 -10,17 -24,31 -41,41 -18,10 -37,15 -57,15 -20,0 -39,-5 -56,-15 -18,-10 -32,-24 -42,-41 -10,-18 -15,-37 -15,-57 0,-20 5,-39 15,-56 10,-18 24,-32 42,-42 17,-10 36,-15 56,-15 20,0 39,5 57,15 17,10 31,24 41,42 10,17 15,36 15,56 z"
   id="path353" />
        <path
   fill="none"
   stroke="#3465a4"
   d="m 4298,3511 c 0,20 -5,39 -15,57 -10,17 -24,31 -41,41 -18,10 -37,15 -57,15 -20,0 -39,-5 -56,-15 -18,-10 -32,-24 -42,-41 -10,-18 -15,-37 -15,-57 0,-20 5,-39 15,-56 10,-18 24,-32 42,-42 17,-10 36,-15 56,-15 20,0 39,5 57,15 17,10 31,24 41,42 10,17 15,36 15,56 z"
   id="path355" />
       </g>
      </g>
      <g
   class="com.sun.star.drawing.CustomShape"
   id="g367">
       <g
   id="id41">
        <rect
   class="BoundingBox"
   stroke="none"
   fill="none"
   x="5435"
   y="3397"
   width="229"
   height="229"
   id="rect360" />
        <path
   fill="#a7074b"
   stroke="none"
   d="m 5662,3511 c 0,20 -5,39 -15,57 -10,17 -24,31 -41,41 -18,10 -37,15 -57,15 -20,0 -39,-5 -56,-15 -18,-10 -32,-24 -42,-41 -10,-18 -15,-37 -15,-57 0,-20 5,-39 15,-56 10,-18 24,-32 42,-42 17,-10 36,-15 56,-15 20,0 39,5 57,15 17,10 31,24 41,42 10,17 15,36 15,56 z"
   id="path362" />
        <path
   fill="none"
   stroke="#3465a4"
   d="m 5662,3511 c 0,20 -5,39 -15,57 -10,17 -24,31 -41,41 -18,10 -37,15 -57,15 -20,0 -39,-5 -56,-15 -18,-10 -32,-24 -42,-41 -10,-18 -15,-37 -15,-57 0,-20 5,-39 15,-56 10,-18 24,-32 42,-42 17,-10 36,-15 56,-15 20,0 39,5 57,15 17,10 31,24 41,42 10,17 15,36 15,56 z"
   id="path364" />
       </g>
      </g>
      <g
   class="Group"
   id="g460">
       <g
   class="com.sun.star.drawing.ClosedBezierShape"
   id="g374">
        <g
   id="id42">
         <rect
   class="BoundingBox"
   stroke="none"
   fill="none"
   x="3244"
   y="1647"
   width="58"
   height="240"
   id="rect369" />
         <path
   fill="#000000"
   stroke="none"
   d="m 3300,1883 c 0,-1 0,-1 -3,-5 -31,-30 -39,-76 -39,-112 0,-41 10,-82 40,-112 2,-3 2,-3 2,-4 0,-2 0,-3 -2,-3 -3,0 -24,16 -39,47 -12,26 -15,52 -15,72 0,19 3,47 16,74 15,29 35,45 38,45 2,0 2,-1 2,-2 z"
   id="path371" />
        </g>
       </g>
       <g
   class="com.sun.star.drawing.ClosedBezierShape"
   id="g381">
        <g
   id="id43">
         <rect
   class="BoundingBox"
   stroke="none"
   fill="none"
   x="3321"
   y="1720"
   width="102"
   height="110"
   id="rect376" />
         <path
   fill="#000000"
   stroke="none"
   d="m 3336,1812 c 0,3 -2,9 -2,10 0,4 4,6 7,6 3,0 7,-2 9,-7 0,0 9,-33 10,-37 2,-8 6,-24 8,-31 0,-3 7,-14 14,-19 2,-2 9,-8 19,-8 6,0 10,3 10,3 -7,1 -13,6 -13,13 0,3 3,8 10,8 7,0 13,-5 13,-14 0,-8 -7,-16 -20,-16 -16,0 -26,13 -31,19 -2,-10 -11,-19 -22,-19 -12,0 -16,10 -19,14 -4,8 -7,22 -7,23 0,3 2,2 3,3 2,0 2,0 4,-6 4,-17 9,-28 18,-28 4,0 7,2 7,11 0,5 0,7 -4,20 -4,18 -9,37 -14,55 z"
   id="path378" />
        </g>
       </g>
       <g
   class="com.sun.star.drawing.ClosedBezierShape"
   id="g388">
        <g
   id="id44">
         <rect
   class="BoundingBox"
   stroke="none"
   fill="none"
   x="3442"
   y="1614"
   width="83"
   height="115"
   id="rect383" />
         <path
   fill="#000000"
   stroke="none"
   d="m 3502,1627 c 2,-6 2,-7 15,-7 4,0 6,0 6,-3 0,-2 -1,-3 -2,-3 -4,0 -8,1 -12,1 -4,0 -8,0 -11,0 -4,0 -8,0 -12,0 -4,0 -9,-1 -12,-1 -1,0 -3,0 -3,3 0,3 1,3 5,3 2,0 4,0 6,0 4,1 5,1 5,3 0,0 0,2 0,3 -8,30 -16,59 -23,88 -2,6 -3,8 -15,8 -5,0 -6,0 -6,3 1,1 0,3 3,3 4,0 18,-1 22,-1 4,0 8,0 12,0 4,0 8,1 12,1 1,0 4,0 4,-4 0,-2 -3,-2 -6,-2 -2,0 -3,0 -7,-1 -4,0 -4,-1 -4,-2 0,-1 0,-1 1,-4 7,-29 15,-59 22,-88 z"
   id="path385" />
        </g>
       </g>
       <g
   class="com.sun.star.drawing.ClosedBezierShape"
   id="g395">
        <g
   id="id45">
         <rect
   class="BoundingBox"
   stroke="none"
   fill="none"
   x="3437"
   y="1769"
   width="86"
   height="118"
   id="rect390" />
         <path
   fill="#000000"
   stroke="none"
   d="m 3478,1774 c 1,0 1,-2 1,-3 0,0 -1,-2 -3,-2 -3,0 -17,2 -21,2 -2,0 -5,0 -5,4 0,2 3,2 5,2 9,0 9,1 9,2 0,2 -1,2 -1,4 -8,31 -16,63 -24,94 -1,3 -1,3 -1,4 0,2 2,5 5,5 5,0 7,-3 8,-7 1,-1 8,-30 8,-32 13,1 23,5 23,14 0,0 0,1 -1,3 -1,2 -1,3 -1,5 0,12 11,17 19,17 16,0 14,-17 22,-25 0,-2 -3,-2 -3,-2 -3,0 -3,0 -4,4 -2,6 -7,19 -15,19 -4,0 -6,-5 -6,-9 0,-3 0,-4 1,-8 0,0 1,-3 1,-5 0,-15 -20,-17 -27,-18 5,-2 11,-8 14,-10 8,-9 17,-16 27,-16 2,0 4,0 5,2 -7,1 -9,7 -9,9 0,4 3,7 7,7 4,0 10,-5 10,-11 0,-6 -4,-12 -13,-12 -10,0 -19,7 -28,14 -7,7 -13,13 -20,15 6,-22 12,-44 17,-66 z"
   id="path392" />
        </g>
       </g>
       <g
   class="com.sun.star.drawing.ClosedBezierShape"
   id="g402">
        <g
   id="id46">
         <rect
   class="BoundingBox"
   stroke="none"
   fill="none"
   x="3544"
   y="1781"
   width="128"
   height="125"
   id="rect397" />
         <path
   fill="#000000"
   stroke="none"
   d="m 3612,1847 c 17,0 35,0 52,0 2,0 7,0 7,-4 0,-4 -5,-4 -7,-4 -17,0 -35,0 -52,0 0,-17 0,-34 0,-52 0,-2 0,-6 -4,-6 -5,0 -5,4 -5,6 0,18 0,35 0,52 -17,0 -35,0 -52,0 -2,0 -6,0 -6,3 0,5 3,5 6,5 17,0 35,0 52,0 0,17 0,34 0,51 0,2 0,6 4,6 5,0 5,-4 5,-6 0,-17 0,-34 0,-51 z"
   id="path399" />
        </g>
       </g>
       <g
   class="com.sun.star.drawing.ClosedBezierShape"
   id="g409">
        <g
   id="id47">
         <rect
   class="BoundingBox"
   stroke="none"
   fill="none"
   x="3701"
   y="1773"
   width="64"
   height="113"
   id="rect404" />
         <path
   fill="#000000"
   stroke="none"
   d="m 3740,1779 c 0,-5 -1,-5 -5,-5 -12,11 -27,11 -34,11 0,2 0,4 0,6 4,0 15,0 25,-5 0,28 0,57 0,85 0,5 0,7 -17,7 -2,0 -4,0 -6,0 0,2 0,4 0,6 2,0 23,0 30,0 5,0 27,0 31,0 0,-2 0,-4 0,-6 -3,0 -5,0 -7,0 -17,0 -17,-2 -17,-7 0,-31 0,-62 0,-92 z"
   id="path406" />
        </g>
       </g>
       <g
   class="com.sun.star.drawing.ClosedBezierShape"
   id="g416">
        <g
   id="id48">
         <rect
   class="BoundingBox"
   stroke="none"
   fill="none"
   x="3813"
   y="1800"
   width="30"
   height="73"
   id="rect411" />
         <path
   fill="#000000"
   stroke="none"
   d="m 3842,1825 c 0,-15 -7,-25 -16,-25 -8,0 -13,6 -13,13 0,6 5,12 13,12 3,0 6,0 9,-2 0,-1 0,-1 1,-1 0,1 0,0 0,3 0,18 -8,32 -16,40 -3,2 -3,3 -3,4 0,2 1,2 2,2 3,0 23,-18 23,-46 z"
   id="path413" />
        </g>
       </g>
       <g
   class="com.sun.star.drawing.ClosedBezierShape"
   id="g423">
        <g
   id="id49">
         <rect
   class="BoundingBox"
   stroke="none"
   fill="none"
   x="3910"
   y="1720"
   width="97"
   height="110"
   id="rect418" />
         <path
   fill="#000000"
   stroke="none"
   d="m 3997,1735 c -4,0 -7,0 -10,4 -4,3 -5,7 -5,9 0,6 5,8 9,8 7,0 14,-5 14,-15 0,-12 -12,-21 -29,-21 -33,0 -66,35 -66,68 0,22 15,40 40,40 35,0 56,-25 56,-28 0,-1 -2,-3 -3,-3 -2,0 -2,1 -4,3 -19,23 -46,23 -48,23 -16,0 -23,-12 -23,-26 0,-10 5,-33 14,-47 7,-14 21,-24 34,-24 9,0 18,3 21,9 z"
   id="path420" />
        </g>
       </g>
       <g
   class="com.sun.star.drawing.ClosedBezierShape"
   id="g430">
        <g
   id="id50">
         <rect
   class="BoundingBox"
   stroke="none"
   fill="none"
   x="4017"
   y="1614"
   width="82"
   height="115"
   id="rect425" />
         <path
   fill="#000000"
   stroke="none"
   d="m 4077,1627 c 2,-6 2,-7 15,-7 4,0 6,0 6,-3 0,-2 -1,-3 -3,-3 -3,0 -7,1 -12,1 -3,0 -7,0 -11,0 -4,0 -8,0 -12,0 -4,0 -8,-1 -11,-1 -2,0 -4,0 -4,3 0,3 2,3 6,3 2,0 3,0 6,0 3,1 5,1 5,3 0,0 -1,2 -1,3 -8,30 -15,59 -23,88 -1,6 -2,8 -14,8 -5,0 -7,0 -7,3 1,1 0,3 3,3 5,0 18,-1 23,-1 4,0 8,0 12,0 3,0 8,1 12,1 0,0 3,0 3,-4 0,-2 -2,-2 -5,-2 -3,0 -5,0 -8,-1 -4,0 -4,-1 -4,-2 0,-1 0,-1 1,-4 8,-29 15,-59 23,-88 z"
   id="path427" />
        </g>
       </g>
       <g
   class="com.sun.star.drawing.ClosedBezierShape"
   id="g437">
        <g
   id="id51">
         <rect
   class="BoundingBox"
   stroke="none"
   fill="none"
   x="4018"
   y="1769"
   width="86"
   height="118"
   id="rect432" />
         <path
   fill="#000000"
   stroke="none"
   d="m 4060,1774 c 0,-1 0,-2 0,-3 0,0 0,-2 -2,-2 -4,0 -18,2 -22,2 -1,0 -4,0 -4,4 0,2 3,2 4,2 8,0 8,1 8,2 0,2 0,2 0,4 -8,31 -16,63 -24,94 -1,3 -1,3 -1,4 0,2 2,5 6,5 4,0 7,-3 8,-7 0,-1 7,-30 8,-32 12,1 22,5 22,14 0,0 0,1 0,3 -1,2 -1,3 -1,5 0,12 10,17 18,17 17,0 14,-17 21,-25 0,-2 -2,-2 -2,-2 -2,0 -2,0 -3,4 -2,6 -7,19 -15,19 -5,0 -7,-5 -7,-9 0,-3 0,-4 2,-8 0,0 0,-3 0,-5 0,-15 -20,-17 -27,-18 4,-2 11,-8 14,-10 9,-9 17,-16 27,-16 2,0 4,0 5,2 -7,1 -8,7 -8,9 0,4 3,7 6,7 5,0 10,-5 10,-11 0,-6 -4,-12 -13,-12 -10,0 -18,7 -27,14 -7,7 -13,13 -20,15 6,-22 11,-44 17,-66 z"
   id="path434" />
        </g>
       </g>
       <g
   class="com.sun.star.drawing.ClosedBezierShape"
   id="g444">
        <g
   id="id52">
         <rect
   class="BoundingBox"
   stroke="none"
   fill="none"
   x="4125"
   y="1781"
   width="128"
   height="125"
   id="rect439" />
         <path
   fill="#000000"
   stroke="none"
   d="m 4193,1847 c 18,0 35,0 52,0 3,0 7,0 7,-4 0,-4 -4,-4 -7,-4 -17,0 -34,0 -52,0 0,-17 0,-34 0,-52 0,-2 0,-6 -4,-6 -4,0 -4,4 -4,6 0,18 0,35 0,52 -18,0 -35,0 -52,0 -3,0 -7,0 -7,3 0,5 4,5 7,5 17,0 34,0 52,0 0,17 0,34 0,51 0,2 0,6 4,6 4,0 4,-4 4,-6 0,-17 0,-34 0,-51 z"
   id="path441" />
        </g>
       </g>
       <g
   class="com.sun.star.drawing.ClosedBezierShape"
   id="g451">
        <g
   id="id53">
         <rect
   class="BoundingBox"
   stroke="none"
   fill="none"
   x="4282"
   y="1773"
   width="64"
   height="113"
   id="rect446" />
         <path
   fill="#000000"
   stroke="none"
   d="m 4321,1779 c 0,-5 0,-5 -5,-5 -11,11 -26,11 -33,11 0,2 0,4 0,6 4,0 15,0 24,-5 0,28 0,57 0,85 0,5 0,7 -17,7 -2,0 -4,0 -7,0 0,2 0,4 0,6 4,0 25,0 31,0 6,0 27,0 31,0 0,-2 0,-4 0,-6 -2,0 -5,0 -7,0 -17,0 -17,-2 -17,-7 0,-31 0,-62 0,-92 z"
   id="path448" />
        </g>
       </g>
       <g
   class="com.sun.star.drawing.ClosedBezierShape"
   id="g458">
        <g
   id="id54">
         <rect
   class="BoundingBox"
   stroke="none"
   fill="none"
   x="4387"
   y="1647"
   width="59"
   height="240"
   id="rect453" />
         <path
   fill="#000000"
   stroke="none"
   d="m 4444,1766 c 0,-19 -3,-47 -16,-74 -15,-29 -35,-45 -38,-45 -2,0 -2,2 -2,3 0,1 0,1 4,5 24,24 38,61 38,111 0,41 -9,82 -40,113 -2,3 -2,3 -2,4 0,1 0,2 2,2 3,0 24,-16 39,-46 12,-26 15,-53 15,-73 z"
   id="path455" />
        </g>
       </g>
      </g>
      <g
   class="Group"
   id="g553">
       <g
   class="com.sun.star.drawing.ClosedBezierShape"
   id="g467">
        <g
   id="id55">
         <rect
   class="BoundingBox"
   stroke="none"
   fill="none"
   x="4775"
   y="1624"
   width="56"
   height="233"
   id="rect462" />
         <path
   fill="#000000"
   stroke="none"
   d="m 4829,1853 c 0,-1 0,-1 -4,-5 -29,-29 -37,-73 -37,-108 0,-40 9,-80 38,-109 3,-3 3,-3 3,-4 0,-1 -1,-3 -3,-3 -2,0 -23,16 -37,46 -11,25 -14,50 -14,70 0,18 3,46 15,72 14,29 34,43 36,43 2,0 3,-1 3,-2 z"
   id="path464" />
        </g>
       </g>
       <g
   class="com.sun.star.drawing.ClosedBezierShape"
   id="g474">
        <g
   id="id56">
         <rect
   class="BoundingBox"
   stroke="none"
   fill="none"
   x="4848"
   y="1695"
   width="97"
   height="107"
   id="rect469" />
         <path
   fill="#000000"
   stroke="none"
   d="m 4863,1784 c -1,3 -2,9 -2,10 0,4 3,6 6,6 3,0 7,-2 9,-6 0,-1 8,-32 9,-37 2,-7 6,-24 7,-30 2,-3 8,-13 13,-19 2,-2 9,-7 19,-7 6,0 9,2 10,2 -7,1 -13,7 -13,13 0,4 3,8 10,8 6,0 12,-5 12,-14 0,-8 -7,-14 -19,-14 -15,0 -25,11 -30,18 -2,-11 -10,-18 -21,-18 -10,0 -15,8 -17,13 -4,7 -7,22 -7,22 0,2 2,2 2,2 3,0 3,0 4,-5 4,-16 9,-27 18,-27 3,0 7,1 7,10 0,5 -1,8 -4,20 -5,18 -9,35 -13,53 z"
   id="path471" />
        </g>
       </g>
       <g
   class="com.sun.star.drawing.ClosedBezierShape"
   id="g481">
        <g
   id="id57">
         <rect
   class="BoundingBox"
   stroke="none"
   fill="none"
   x="4960"
   y="1592"
   width="146"
   height="112"
   id="rect476" />
         <path
   fill="#000000"
   stroke="none"
   d="m 5043,1641 c 5,-5 10,-10 15,-15 21,-21 27,-27 43,-28 2,0 3,0 3,-3 0,-2 -1,-3 -2,-3 -5,0 -10,1 -15,1 -4,0 -15,-1 -19,-1 -1,0 -3,1 -3,3 0,1 0,3 2,3 2,0 6,1 6,4 0,2 -3,5 -4,6 -1,2 -23,21 -28,28 -6,-11 -11,-21 -17,-32 0,-1 -1,-1 -1,-2 0,-1 4,-4 9,-4 1,0 3,0 3,-4 -1,-1 0,-2 -2,-2 -4,0 -8,1 -11,1 -3,0 -7,0 -10,0 -3,0 -7,0 -10,0 -3,-1 -6,-1 -9,-1 -1,0 -3,0 -3,3 0,3 2,3 4,3 10,0 10,1 12,5 8,14 15,29 23,44 -3,3 -6,6 -9,9 -3,3 -11,10 -14,14 -19,19 -26,26 -41,27 -2,0 -4,0 -4,3 0,1 0,2 2,2 5,0 10,0 16,0 2,0 6,0 9,0 3,0 6,0 9,0 1,0 4,0 4,-3 0,-2 -2,-2 -3,-2 -2,0 -6,-1 -6,-4 0,-3 3,-5 6,-9 11,-11 22,-21 33,-32 7,13 14,26 20,39 1,1 1,1 1,2 0,0 -3,3 -9,4 -1,0 -3,0 -3,3 0,1 0,2 3,2 3,0 6,0 10,0 4,0 7,0 11,0 3,0 7,0 10,0 2,0 5,0 8,0 1,0 3,0 3,-3 0,-2 -2,-2 -4,-2 -9,0 -10,-2 -11,-5 -9,-17 -18,-34 -27,-51 z"
   id="path478" />
        </g>
       </g>
       <g
   class="com.sun.star.drawing.ClosedBezierShape"
   id="g488">
        <g
   id="id58">
         <rect
   class="BoundingBox"
   stroke="none"
   fill="none"
   x="4958"
   y="1742"
   width="82"
   height="116"
   id="rect483" />
         <path
   fill="#000000"
   stroke="none"
   d="m 4997,1747 c 1,0 1,-2 1,-2 0,-1 -1,-2 -3,-2 -3,0 -16,1 -20,1 -2,1 -4,1 -4,4 0,2 2,2 4,2 8,0 8,1 8,2 0,2 0,2 0,4 -8,31 -16,61 -23,92 -1,2 -1,2 -1,3 0,3 2,5 5,5 5,0 7,-3 8,-6 0,-1 7,-30 8,-32 11,2 20,5 20,13 0,1 0,2 0,4 0,2 0,3 0,5 0,11 9,16 17,16 16,0 20,-24 20,-25 0,-2 -2,-2 -2,-2 -2,0 -3,1 -4,4 -2,8 -6,19 -14,19 -4,0 -5,-4 -5,-9 0,-2 0,-2 0,-7 1,-1 2,-3 2,-5 0,-14 -20,-17 -27,-17 5,-3 11,-8 13,-11 9,-8 17,-15 26,-15 2,0 4,1 5,2 -7,1 -8,7 -8,9 0,3 2,6 6,6 5,0 10,-3 10,-10 0,-6 -4,-12 -13,-12 -9,0 -18,7 -26,15 -7,6 -12,11 -19,14 6,-22 11,-43 16,-65 z"
   id="path485" />
        </g>
       </g>
       <g
   class="com.sun.star.drawing.ClosedBezierShape"
   id="g495">
        <g
   id="id59">
         <rect
   class="BoundingBox"
   stroke="none"
   fill="none"
   x="5060"
   y="1754"
   width="121"
   height="121"
   id="rect490" />
         <path
   fill="#000000"
   stroke="none"
   d="m 5124,1818 c 17,0 33,0 50,0 2,0 6,0 6,-4 0,-4 -4,-4 -6,-4 -17,0 -33,0 -50,0 0,-16 0,-33 0,-50 0,-2 0,-6 -4,-6 -4,0 -4,4 -4,6 0,17 0,34 0,50 -16,0 -33,0 -50,0 -2,0 -6,0 -6,4 0,4 4,4 6,4 17,0 34,0 50,0 0,17 0,33 0,50 0,2 0,5 4,5 4,0 4,-3 4,-5 0,-17 0,-33 0,-50 z"
   id="path492" />
        </g>
       </g>
       <g
   class="com.sun.star.drawing.ClosedBezierShape"
   id="g502">
        <g
   id="id60">
         <rect
   class="BoundingBox"
   stroke="none"
   fill="none"
   x="5208"
   y="1747"
   width="61"
   height="109"
   id="rect497" />
         <path
   fill="#000000"
   stroke="none"
   d="m 5246,1752 c 0,-4 -1,-5 -5,-5 -11,11 -26,11 -32,11 0,2 0,4 0,6 4,0 14,0 23,-5 0,27 0,55 0,82 0,5 0,8 -16,8 -2,0 -4,0 -6,0 0,2 0,4 0,5 3,0 23,0 29,0 5,0 25,0 29,0 0,-1 0,-3 0,-5 -2,0 -4,0 -7,0 -15,0 -15,-3 -15,-8 0,-30 0,-59 0,-89 z"
   id="path499" />
        </g>
       </g>
       <g
   class="com.sun.star.drawing.ClosedBezierShape"
   id="g509">
        <g
   id="id61">
         <rect
   class="BoundingBox"
   stroke="none"
   fill="none"
   x="5314"
   y="1772"
   width="29"
   height="71"
   id="rect504" />
         <path
   fill="#000000"
   stroke="none"
   d="m 5342,1797 c 0,-15 -6,-24 -15,-24 -8,0 -12,6 -12,12 0,7 4,13 12,13 3,0 6,-1 8,-3 1,-1 1,-1 1,-1 1,1 1,0 1,3 0,17 -8,31 -16,39 -2,3 -2,3 -2,4 0,1 1,2 2,2 2,0 21,-18 21,-45 z"
   id="path506" />
        </g>
       </g>
       <g
   class="com.sun.star.drawing.ClosedBezierShape"
   id="g516">
        <g
   id="id62">
         <rect
   class="BoundingBox"
   stroke="none"
   fill="none"
   x="5407"
   y="1695"
   width="92"
   height="107"
   id="rect511" />
         <path
   fill="#000000"
   stroke="none"
   d="m 5489,1710 c -3,0 -6,0 -10,3 -4,3 -4,7 -4,9 0,5 4,8 9,8 7,0 13,-5 13,-14 0,-12 -11,-20 -27,-20 -32,0 -62,33 -62,65 0,21 13,39 37,39 33,0 52,-25 52,-27 0,-1 -1,-3 -2,-3 -2,0 -2,0 -3,2 -18,23 -44,23 -47,23 -14,0 -20,-11 -20,-25 0,-10 4,-32 12,-46 8,-14 20,-23 33,-23 7,0 17,3 19,9 z"
   id="path513" />
        </g>
       </g>
       <g
   class="com.sun.star.drawing.ClosedBezierShape"
   id="g523">
        <g
   id="id63">
         <rect
   class="BoundingBox"
   stroke="none"
   fill="none"
   x="5506"
   y="1591"
   width="145"
   height="113"
   id="rect518" />
         <path
   fill="#000000"
   stroke="none"
   d="m 5588,1641 c 5,-5 11,-10 16,-15 20,-21 27,-27 41,-28 2,0 4,0 4,-3 0,-2 -2,-3 -2,-3 -5,0 -10,1 -15,1 -4,0 -15,-1 -19,-1 -1,0 -3,1 -3,3 0,1 0,3 3,3 1,0 5,1 5,4 0,2 -3,5 -4,6 -1,2 -22,21 -28,28 -6,-11 -11,-21 -16,-32 -1,0 -2,-1 -2,-2 0,-1 4,-4 9,-4 1,0 4,0 4,-4 -1,-1 -1,-2 -3,-2 -4,0 -8,1 -11,1 -3,0 -7,0 -10,0 -3,0 -7,0 -10,0 -3,-1 -6,-1 -9,-1 -1,0 -3,0 -3,3 0,3 2,3 4,3 10,0 11,1 12,5 8,14 16,29 23,44 -3,3 -6,6 -9,9 -3,3 -10,10 -14,14 -20,19 -26,26 -41,27 -2,0 -4,0 -4,3 0,1 0,2 2,2 5,0 11,0 16,0 2,0 6,0 9,0 3,0 6,0 10,0 0,0 3,0 3,-3 0,-2 -2,-2 -3,-2 -2,0 -5,-1 -5,-4 0,-3 2,-5 5,-9 11,-11 22,-21 33,-32 7,13 13,26 20,39 1,1 1,1 1,2 0,0 -3,3 -9,4 -1,0 -3,0 -3,3 0,1 0,2 3,2 3,0 7,0 11,0 3,0 6,0 10,0 3,0 7,0 9,0 3,0 7,0 9,0 1,0 4,0 4,-3 0,-2 -3,-2 -5,-2 -10,0 -10,-2 -11,-5 -9,-17 -18,-34 -27,-51 z"
   id="path520" />
        </g>
       </g>
       <g
   class="com.sun.star.drawing.ClosedBezierShape"
   id="g530">
        <g
   id="id64">
         <rect
   class="BoundingBox"
   stroke="none"
   fill="none"
   x="5510"
   y="1742"
   width="82"
   height="116"
   id="rect525" />
         <path
   fill="#000000"
   stroke="none"
   d="m 5549,1747 c 0,0 0,-2 0,-2 0,-1 0,-2 -2,-2 -3,0 -17,1 -21,1 -1,1 -3,1 -3,4 0,2 2,2 4,2 8,0 8,1 8,2 0,2 -1,2 -1,4 -8,31 -15,61 -23,92 -1,2 -1,2 -1,3 0,3 2,5 6,5 4,0 6,-3 8,-6 0,-1 7,-30 7,-32 12,2 21,5 21,13 0,1 0,2 0,4 -1,2 -1,3 -1,5 0,11 9,16 17,16 16,0 21,-24 21,-25 0,-2 -2,-2 -3,-2 -2,0 -2,1 -3,4 -2,8 -7,19 -15,19 -4,0 -5,-4 -5,-9 0,-2 0,-2 1,-7 0,-1 1,-3 1,-5 0,-14 -20,-17 -26,-17 4,-3 10,-8 13,-11 8,-8 16,-15 26,-15 2,0 4,1 5,2 -7,1 -9,7 -9,9 0,3 3,6 7,6 4,0 9,-3 9,-10 0,-6 -4,-12 -12,-12 -10,0 -18,7 -26,15 -7,6 -13,11 -19,14 5,-22 10,-43 16,-65 z"
   id="path527" />
        </g>
       </g>
       <g
   class="com.sun.star.drawing.ClosedBezierShape"
   id="g537">
        <g
   id="id65">
         <rect
   class="BoundingBox"
   stroke="none"
   fill="none"
   x="5611"
   y="1754"
   width="122"
   height="121"
   id="rect532" />
         <path
   fill="#000000"
   stroke="none"
   d="m 5676,1818 c 16,0 33,0 49,0 2,0 6,0 6,-4 0,-4 -4,-4 -6,-4 -16,0 -33,0 -49,0 0,-16 0,-33 0,-50 0,-2 0,-6 -4,-6 -4,0 -4,4 -4,6 0,17 0,34 0,50 -17,0 -33,0 -50,0 -2,0 -6,0 -6,4 0,4 4,4 6,4 17,0 33,0 50,0 0,17 0,33 0,50 0,2 0,5 3,5 5,0 5,-3 5,-5 0,-17 0,-33 0,-50 z"
   id="path534" />
        </g>
       </g>
       <g
   class="com.sun.star.drawing.ClosedBezierShape"
   id="g544">
        <g
   id="id66">
         <rect
   class="BoundingBox"
   stroke="none"
   fill="none"
   x="5760"
   y="1747"
   width="61"
   height="109"
   id="rect539" />
         <path
   fill="#000000"
   stroke="none"
   d="m 5797,1752 c 0,-4 -1,-5 -5,-5 -10,11 -25,11 -32,11 0,2 0,4 0,6 4,0 15,0 24,-5 0,27 0,55 0,82 0,5 0,8 -17,8 -2,0 -4,0 -6,0 0,2 0,4 0,5 3,0 24,0 29,0 5,0 26,0 29,0 0,-1 0,-3 0,-5 -2,0 -4,0 -6,0 -16,0 -16,-3 -16,-8 0,-30 0,-59 0,-89 z"
   id="path541" />
        </g>
       </g>
       <g
   class="com.sun.star.drawing.ClosedBezierShape"
   id="g551">
        <g
   id="id67">
         <rect
   class="BoundingBox"
   stroke="none"
   fill="none"
   x="5859"
   y="1624"
   width="56"
   height="233"
   id="rect546" />
         <path
   fill="#000000"
   stroke="none"
   d="m 5914,1740 c 0,-18 -3,-46 -16,-72 -14,-29 -34,-44 -36,-44 -1,0 -2,2 -2,3 0,1 0,1 4,5 23,23 36,60 36,108 0,39 -9,80 -37,109 -3,3 -3,3 -3,4 0,1 1,2 2,2 2,0 23,-15 37,-45 11,-25 15,-51 15,-70 z"
   id="path548" />
        </g>
       </g>
      </g>
      <g
   class="Group"
   id="g646">
       <g
   class="com.sun.star.drawing.ClosedBezierShape"
   id="g560">
        <g
   id="id68">
         <rect
   class="BoundingBox"
   stroke="none"
   fill="none"
   x="3193"
   y="4629"
   width="56"
   height="233"
   id="rect555" />
         <path
   fill="#000000"
   stroke="none"
   d="m 3247,4858 c 0,-1 0,-1 -4,-5 -29,-29 -36,-73 -36,-108 0,-40 9,-80 38,-109 2,-3 2,-3 2,-4 0,-1 0,-3 -2,-3 -2,0 -24,16 -37,46 -12,25 -14,50 -14,70 0,18 2,46 15,72 14,29 34,43 36,43 2,0 2,-1 2,-2 z"
   id="path557" />
        </g>
       </g>
       <g
   class="com.sun.star.drawing.ClosedBezierShape"
   id="g567">
        <g
   id="id69">
         <rect
   class="BoundingBox"
   stroke="none"
   fill="none"
   x="3266"
   y="4700"
   width="80"
   height="104"
   id="rect562" />
         <path
   fill="#000000"
   stroke="none"
   d="m 3299,4726 c 0,-8 0,-17 0,-25 -11,1 -21,1 -32,2 0,2 0,5 0,7 16,0 18,2 18,13 0,21 0,41 0,62 0,11 -2,11 -18,11 0,2 0,4 0,7 9,-1 20,-1 26,-1 10,0 21,0 30,1 0,-3 0,-5 0,-7 -2,0 -3,0 -5,0 -17,0 -17,-3 -17,-12 0,-11 0,-23 0,-35 0,-23 9,-43 27,-43 2,0 2,0 2,0 0,0 -5,3 -5,9 0,6 5,10 10,10 4,0 10,-3 10,-10 0,-8 -8,-14 -17,-14 -17,0 -25,15 -29,25 z"
   id="path564" />
        </g>
       </g>
       <g
   class="com.sun.star.drawing.ClosedBezierShape"
   id="g574">
        <g
   id="id70">
         <rect
   class="BoundingBox"
   stroke="none"
   fill="none"
   x="3360"
   y="4608"
   width="131"
   height="112"
   id="rect569" />
         <path
   fill="#000000"
   stroke="none"
   d="m 3461,4628 c 4,-3 6,-6 10,-9 7,-4 13,-4 15,-5 2,0 4,0 4,-3 0,-2 -2,-2 -3,-2 -4,0 -9,0 -12,0 -6,0 -13,0 -18,0 0,0 -3,0 -3,3 0,2 2,2 3,2 5,1 5,3 5,3 0,2 -1,3 -3,4 0,2 -1,3 -2,4 -14,14 -27,28 -40,42 -8,-15 -15,-31 -22,-47 -1,-2 -1,-2 -1,-3 0,-3 7,-3 9,-3 2,0 4,0 4,-3 -1,-1 0,-2 -3,-2 -5,0 -16,0 -22,0 -4,0 -14,0 -18,0 -1,0 -3,0 -3,3 0,2 2,2 4,2 9,0 10,2 12,5 8,19 17,37 25,56 -2,9 -5,19 -7,29 -2,8 -3,9 -15,9 -3,0 -5,0 -5,4 0,1 1,2 3,2 2,0 6,0 10,0 3,0 7,-1 10,-1 3,0 7,1 11,1 3,0 7,0 10,0 2,0 4,0 4,-4 0,-2 -2,-2 -6,-2 -2,0 -2,0 -6,0 -3,-1 -3,-1 -3,-2 0,-2 2,-9 3,-13 1,-6 4,-20 5,-21 1,-2 1,-2 2,-4 14,-15 29,-30 43,-45 z"
   id="path571" />
        </g>
       </g>
       <g
   class="com.sun.star.drawing.ClosedBezierShape"
   id="g581">
        <g
   id="id71">
         <rect
   class="BoundingBox"
   stroke="none"
   fill="none"
   x="3363"
   y="4756"
   width="82"
   height="115"
   id="rect576" />
         <path
   fill="#000000"
   stroke="none"
   d="m 3402,4761 c 0,-1 0,-2 1,-3 0,-1 -1,-2 -3,-2 -3,0 -16,1 -20,1 -2,0 -4,1 -4,4 0,2 2,2 4,2 8,0 8,2 8,3 0,1 0,2 -1,3 -8,31 -15,61 -23,92 0,3 0,3 0,4 0,2 1,4 5,4 5,0 7,-2 7,-6 1,-1 8,-29 8,-31 12,0 21,4 21,13 0,1 0,1 0,3 -1,2 -1,3 -1,5 0,12 10,16 17,16 16,0 14,-16 21,-24 0,-2 -2,-1 -2,-2 -3,0 -3,1 -4,4 -2,6 -6,18 -14,18 -5,0 -6,-4 -6,-8 0,-3 0,-4 1,-7 0,-1 1,-4 1,-6 0,-14 -19,-16 -26,-17 4,-2 11,-8 13,-10 8,-8 17,-15 25,-15 2,0 5,0 6,1 -7,1 -8,7 -8,10 0,3 2,6 6,6 4,0 10,-4 10,-11 0,-5 -4,-11 -13,-11 -9,0 -18,6 -26,14 -7,6 -12,12 -19,14 6,-21 11,-43 16,-64 z"
   id="path578" />
        </g>
       </g>
       <g
   class="com.sun.star.drawing.ClosedBezierShape"
   id="g588">
        <g
   id="id72">
         <rect
   class="BoundingBox"
   stroke="none"
   fill="none"
   x="3465"
   y="4767"
   width="121"
   height="122"
   id="rect583" />
         <path
   fill="#000000"
   stroke="none"
   d="m 3529,4832 c 16,0 33,0 50,0 2,0 6,0 6,-4 0,-5 -4,-5 -6,-5 -17,0 -34,0 -50,0 0,-16 0,-33 0,-49 0,-2 0,-6 -4,-6 -4,0 -4,4 -4,6 0,16 0,33 0,49 -17,0 -33,0 -50,0 -2,0 -6,0 -6,4 0,5 4,5 6,5 17,0 33,0 50,0 0,16 0,33 0,49 0,2 0,6 4,6 4,0 4,-4 4,-6 0,-16 0,-33 0,-49 z"
   id="path585" />
        </g>
       </g>
       <g
   class="com.sun.star.drawing.ClosedBezierShape"
   id="g595">
        <g
   id="id73">
         <rect
   class="BoundingBox"
   stroke="none"
   fill="none"
   x="3613"
   y="4760"
   width="61"
   height="109"
   id="rect590" />
         <path
   fill="#000000"
   stroke="none"
   d="m 3650,4765 c 0,-4 0,-4 -5,-4 -10,10 -25,10 -31,10 0,2 0,4 0,6 4,0 14,0 23,-4 0,27 0,54 0,82 0,5 0,7 -16,7 -2,0 -4,0 -6,0 0,2 0,4 0,6 3,0 22,-1 28,-1 6,0 26,1 30,1 0,-2 0,-4 0,-6 -2,0 -5,0 -7,0 -16,0 -16,-2 -16,-7 0,-30 0,-60 0,-90 z"
   id="path592" />
        </g>
       </g>
       <g
   class="com.sun.star.drawing.ClosedBezierShape"
   id="g602">
        <g
   id="id74">
         <rect
   class="BoundingBox"
   stroke="none"
   fill="none"
   x="3719"
   y="4777"
   width="29"
   height="71"
   id="rect597" />
         <path
   fill="#000000"
   stroke="none"
   d="m 3747,4802 c 0,-15 -6,-24 -15,-24 -8,0 -12,6 -12,12 0,7 4,13 12,13 3,0 5,-1 8,-3 1,-1 1,-1 1,-1 0,1 0,0 0,3 0,17 -7,31 -15,39 -2,3 -2,3 -2,4 0,1 0,2 2,2 2,0 21,-18 21,-45 z"
   id="path599" />
        </g>
       </g>
       <g
   class="com.sun.star.drawing.ClosedBezierShape"
   id="g609">
        <g
   id="id75">
         <rect
   class="BoundingBox"
   stroke="none"
   fill="none"
   x="3811"
   y="4700"
   width="93"
   height="107"
   id="rect604" />
         <path
   fill="#000000"
   stroke="none"
   d="m 3894,4715 c -3,0 -6,0 -10,3 -4,3 -4,7 -4,9 0,5 4,8 8,8 8,0 14,-5 14,-14 0,-12 -11,-20 -27,-20 -32,0 -63,33 -63,65 0,21 14,39 37,39 34,0 53,-25 53,-27 0,-1 -1,-3 -2,-3 -2,0 -2,0 -4,2 -18,23 -43,23 -46,23 -14,0 -21,-11 -21,-25 0,-10 5,-32 13,-46 7,-14 20,-23 33,-23 7,0 16,3 19,9 z"
   id="path606" />
        </g>
       </g>
       <g
   class="com.sun.star.drawing.ClosedBezierShape"
   id="g616">
        <g
   id="id76">
         <rect
   class="BoundingBox"
   stroke="none"
   fill="none"
   x="3912"
   y="4608"
   width="131"
   height="112"
   id="rect611" />
         <path
   fill="#000000"
   stroke="none"
   d="m 4013,4628 c 3,-3 6,-6 10,-9 6,-4 12,-4 14,-5 2,0 4,0 4,-3 0,-2 -1,-2 -2,-2 -4,0 -9,0 -13,0 -5,0 -12,0 -17,0 -1,0 -3,0 -3,3 0,2 2,2 2,2 6,1 6,3 6,3 0,2 -2,3 -3,4 -1,2 -1,3 -3,4 -13,14 -26,28 -40,42 -7,-15 -14,-31 -22,-47 0,-2 0,-2 0,-3 0,-3 7,-3 8,-3 2,0 4,0 4,-3 -1,-1 0,-2 -2,-2 -5,0 -17,0 -22,0 -4,0 -15,0 -19,0 -1,0 -3,0 -3,3 0,2 3,2 5,2 9,0 10,2 12,5 8,19 16,37 25,56 -3,9 -5,19 -8,29 -2,8 -2,9 -15,9 -2,0 -4,0 -4,4 0,1 0,2 2,2 3,0 7,0 10,0 3,0 8,-1 11,-1 3,0 7,1 10,1 3,0 7,0 11,0 1,0 4,0 4,-4 0,-2 -2,-2 -6,-2 -3,0 -3,0 -6,0 -3,-1 -3,-1 -3,-2 0,-2 2,-9 2,-13 1,-6 5,-20 5,-21 1,-2 1,-2 2,-4 15,-15 29,-30 44,-45 z"
   id="path613" />
        </g>
       </g>
       <g
   class="com.sun.star.drawing.ClosedBezierShape"
   id="g623">
        <g
   id="id77">
         <rect
   class="BoundingBox"
   stroke="none"
   fill="none"
   x="3915"
   y="4756"
   width="82"
   height="115"
   id="rect618" />
         <path
   fill="#000000"
   stroke="none"
   d="m 3954,4761 c 0,-1 0,-2 0,-3 0,-1 0,-2 -2,-2 -4,0 -17,1 -21,1 -1,0 -4,1 -4,4 0,2 3,2 5,2 7,0 7,2 7,3 0,1 0,2 -1,3 -7,31 -14,61 -22,92 -1,3 -1,3 -1,4 0,2 2,4 6,4 4,0 6,-2 7,-6 1,-1 7,-29 8,-31 12,0 21,4 21,13 0,1 0,1 -1,3 0,2 0,3 0,5 0,12 9,16 17,16 16,0 14,-16 21,-24 0,-2 -2,-1 -3,-2 -2,0 -2,1 -3,4 -2,6 -7,18 -15,18 -4,0 -6,-4 -6,-8 0,-3 0,-4 2,-7 0,-1 0,-4 0,-6 0,-14 -19,-16 -26,-17 5,-2 11,-8 14,-10 8,-8 16,-15 25,-15 2,0 5,0 5,1 -6,1 -8,7 -8,10 0,3 3,6 7,6 4,0 9,-4 9,-11 0,-5 -4,-11 -12,-11 -10,0 -18,6 -27,14 -6,6 -12,12 -18,14 5,-21 10,-43 16,-64 z"
   id="path620" />
        </g>
       </g>
       <g
   class="com.sun.star.drawing.ClosedBezierShape"
   id="g630">
        <g
   id="id78">
         <rect
   class="BoundingBox"
   stroke="none"
   fill="none"
   x="4016"
   y="4767"
   width="122"
   height="122"
   id="rect625" />
         <path
   fill="#000000"
   stroke="none"
   d="m 4080,4832 c 17,0 34,0 50,0 2,0 6,0 6,-4 0,-5 -4,-5 -6,-5 -16,0 -33,0 -50,0 0,-16 0,-33 0,-49 0,-2 0,-6 -4,-6 -4,0 -4,4 -4,6 0,16 0,33 0,49 -16,0 -33,0 -49,0 -2,0 -6,0 -6,4 0,5 3,5 6,5 16,0 33,0 49,0 0,16 0,33 0,49 0,2 0,6 4,6 4,0 4,-4 4,-6 0,-16 0,-33 0,-49 z"
   id="path627" />
        </g>
       </g>
       <g
   class="com.sun.star.drawing.ClosedBezierShape"
   id="g637">
        <g
   id="id79">
         <rect
   class="BoundingBox"
   stroke="none"
   fill="none"
   x="4165"
   y="4760"
   width="60"
   height="109"
   id="rect632" />
         <path
   fill="#000000"
   stroke="none"
   d="m 4202,4765 c 0,-4 -1,-4 -5,-4 -11,10 -25,10 -32,10 0,2 0,4 0,6 4,0 15,0 24,-4 0,27 0,54 0,82 0,5 0,7 -17,7 -2,0 -4,0 -6,0 0,2 0,4 0,6 3,0 23,-1 29,-1 5,0 25,1 29,1 0,-2 0,-4 0,-6 -2,0 -4,0 -6,0 -16,0 -16,-2 -16,-7 0,-30 0,-60 0,-90 z"
   id="path634" />
        </g>
       </g>
       <g
   class="com.sun.star.drawing.ClosedBezierShape"
   id="g644">
        <g
   id="id80">
         <rect
   class="BoundingBox"
   stroke="none"
   fill="none"
   x="4264"
   y="4629"
   width="56"
   height="233"
   id="rect639" />
         <path
   fill="#000000"
   stroke="none"
   d="m 4318,4745 c 0,-18 -3,-46 -15,-72 -14,-29 -34,-44 -36,-44 -2,0 -2,2 -2,3 0,1 0,1 4,5 23,23 36,60 36,108 0,39 -9,80 -38,109 -2,3 -2,3 -2,4 0,1 0,2 2,2 2,0 23,-15 37,-45 11,-25 14,-51 14,-70 z"
   id="path641" />
        </g>
       </g>
      </g>
      <g
   class="Group"
   id="g739">
       <g
   class="com.sun.star.drawing.ClosedBezierShape"
   id="g653">
        <g
   id="id81">
         <rect
   class="BoundingBox"
   stroke="none"
   fill="none"
   x="4762"
   y="4652"
   width="56"
   height="233"
   id="rect648" />
         <path
   fill="#000000"
   stroke="none"
   d="m 4816,4881 c 0,-1 0,-1 -4,-5 -29,-29 -36,-73 -36,-108 0,-40 9,-80 37,-109 3,-3 3,-3 3,-4 0,-1 -1,-3 -2,-3 -2,0 -24,16 -37,46 -12,25 -15,50 -15,70 0,18 3,46 15,72 15,29 35,43 37,43 1,0 2,-1 2,-2 z"
   id="path650" />
        </g>
       </g>
       <g
   class="com.sun.star.drawing.ClosedBezierShape"
   id="g660">
        <g
   id="id82">
         <rect
   class="BoundingBox"
   stroke="none"
   fill="none"
   x="4835"
   y="4723"
   width="80"
   height="104"
   id="rect655" />
         <path
   fill="#000000"
   stroke="none"
   d="m 4868,4749 c 0,-8 0,-17 0,-25 -11,1 -21,1 -32,2 0,2 0,5 0,7 16,0 18,2 18,13 0,21 0,41 0,62 0,11 -3,11 -18,11 0,2 0,4 0,7 9,-1 20,-1 26,-1 10,0 21,0 30,1 0,-3 0,-5 0,-7 -2,0 -4,0 -5,0 -17,0 -17,-3 -17,-12 0,-11 0,-23 0,-35 0,-23 9,-43 27,-43 1,0 2,0 2,0 0,0 -5,3 -5,9 0,6 5,10 10,10 4,0 10,-3 10,-10 0,-8 -8,-14 -17,-14 -18,0 -25,15 -29,25 z"
   id="path657" />
        </g>
       </g>
       <g
   class="com.sun.star.drawing.ClosedBezierShape"
   id="g667">
        <g
   id="id83">
         <rect
   class="BoundingBox"
   stroke="none"
   fill="none"
   x="4932"
   y="4631"
   width="119"
   height="112"
   id="rect662" />
         <path
   fill="#000000"
   stroke="none"
   d="m 5047,4638 c 1,-2 2,-3 2,-5 0,-1 -1,-1 -4,-1 -25,0 -51,0 -76,0 -4,0 -4,0 -5,2 -3,10 -6,20 -9,30 -1,2 -1,2 -1,3 0,0 1,2 3,2 3,0 2,-1 3,-3 8,-23 20,-29 41,-29 10,0 20,0 29,0 -31,33 -62,65 -94,97 -1,2 -3,4 -3,6 0,2 2,2 4,2 27,0 53,0 79,0 4,0 4,0 5,-4 4,-11 8,-23 12,-35 1,-3 0,-2 1,-3 0,0 0,-2 -3,-2 -2,0 -3,0 -3,4 -8,22 -16,33 -44,33 -11,0 -21,0 -31,0 31,-32 62,-65 94,-97 z"
   id="path664" />
        </g>
       </g>
       <g
   class="com.sun.star.drawing.ClosedBezierShape"
   id="g674">
        <g
   id="id84">
         <rect
   class="BoundingBox"
   stroke="none"
   fill="none"
   x="4932"
   y="4779"
   width="81"
   height="115"
   id="rect669" />
         <path
   fill="#000000"
   stroke="none"
   d="m 4971,4784 c 0,-1 0,-2 1,-3 0,-1 -1,-2 -3,-2 -3,0 -17,1 -21,1 -1,0 -3,1 -3,4 0,2 2,2 4,2 8,0 8,2 8,3 0,1 0,2 -1,3 -8,31 -15,61 -23,92 -1,3 -1,3 -1,4 0,2 2,4 6,4 4,0 6,-2 7,-6 0,-1 8,-29 8,-31 11,0 21,4 21,13 0,1 0,1 0,3 -1,2 -1,3 -1,5 0,12 9,16 17,16 16,0 14,-16 21,-24 0,-2 -2,-2 -3,-2 -2,0 -2,1 -3,4 -2,6 -6,18 -14,18 -5,0 -6,-4 -6,-8 0,-3 0,-4 1,-7 0,-1 1,-4 1,-6 0,-14 -20,-16 -27,-17 5,-2 11,-8 14,-10 8,-8 16,-15 25,-15 2,0 4,0 6,1 -7,1 -9,7 -9,10 0,3 3,6 7,6 4,0 9,-4 9,-11 0,-5 -4,-11 -13,-11 -9,0 -17,6 -25,14 -7,6 -13,12 -19,14 5,-21 11,-43 16,-64 z"
   id="path671" />
        </g>
       </g>
       <g
   class="com.sun.star.drawing.ClosedBezierShape"
   id="g681">
        <g
   id="id85">
         <rect
   class="BoundingBox"
   stroke="none"
   fill="none"
   x="5033"
   y="4790"
   width="121"
   height="122"
   id="rect676" />
         <path
   fill="#000000"
   stroke="none"
   d="m 5098,4855 c 16,0 33,0 49,0 2,0 6,0 6,-4 0,-5 -3,-5 -6,-5 -16,0 -33,0 -49,0 0,-16 0,-33 0,-49 0,-2 0,-6 -4,-6 -4,0 -4,4 -4,6 0,16 0,33 0,49 -17,0 -34,0 -50,0 -2,0 -6,0 -6,4 0,5 4,5 6,5 16,0 33,0 50,0 0,16 0,33 0,49 0,2 0,6 4,6 4,0 4,-4 4,-6 0,-16 0,-33 0,-49 z"
   id="path678" />
        </g>
       </g>
       <g
   class="com.sun.star.drawing.ClosedBezierShape"
   id="g688">
        <g
   id="id86">
         <rect
   class="BoundingBox"
   stroke="none"
   fill="none"
   x="5182"
   y="4783"
   width="61"
   height="109"
   id="rect683" />
         <path
   fill="#000000"
   stroke="none"
   d="m 5219,4788 c 0,-4 0,-4 -5,-4 -10,10 -25,10 -31,10 0,2 0,4 0,6 4,0 14,0 23,-4 0,27 0,54 0,82 0,5 0,7 -16,7 -2,0 -5,0 -7,0 0,2 0,4 0,6 4,0 23,-1 29,-1 5,0 26,1 29,1 0,-2 0,-4 0,-6 -2,0 -4,0 -6,0 -16,0 -16,-2 -16,-7 0,-30 0,-60 0,-90 z"
   id="path685" />
        </g>
       </g>
       <g
   class="com.sun.star.drawing.ClosedBezierShape"
   id="g695">
        <g
   id="id87">
         <rect
   class="BoundingBox"
   stroke="none"
   fill="none"
   x="5288"
   y="4800"
   width="29"
   height="71"
   id="rect690" />
         <path
   fill="#000000"
   stroke="none"
   d="m 5316,4825 c 0,-15 -6,-24 -15,-24 -8,0 -12,6 -12,12 0,7 4,13 12,13 3,0 5,-1 8,-3 1,-1 1,-1 1,-1 0,0 0,0 0,3 0,17 -8,31 -15,39 -3,3 -3,3 -3,4 0,1 1,2 3,2 2,0 21,-18 21,-45 z"
   id="path692" />
        </g>
       </g>
       <g
   class="com.sun.star.drawing.ClosedBezierShape"
   id="g702">
        <g
   id="id88">
         <rect
   class="BoundingBox"
   stroke="none"
   fill="none"
   x="5380"
   y="4723"
   width="93"
   height="107"
   id="rect697" />
         <path
   fill="#000000"
   stroke="none"
   d="m 5463,4738 c -4,0 -7,0 -10,3 -4,3 -4,7 -4,9 0,5 4,8 8,8 7,0 14,-5 14,-14 0,-12 -12,-20 -28,-20 -31,0 -62,33 -62,65 0,21 13,39 37,39 33,0 53,-25 53,-27 0,-1 -1,-3 -2,-3 -2,0 -2,0 -4,2 -18,23 -43,23 -46,23 -14,0 -21,-11 -21,-25 0,-10 5,-32 13,-46 7,-14 19,-23 33,-23 7,0 16,3 19,9 z"
   id="path699" />
        </g>
       </g>
       <g
   class="com.sun.star.drawing.ClosedBezierShape"
   id="g709">
        <g
   id="id89">
         <rect
   class="BoundingBox"
   stroke="none"
   fill="none"
   x="5484"
   y="4631"
   width="119"
   height="112"
   id="rect704" />
         <path
   fill="#000000"
   stroke="none"
   d="m 5598,4638 c 2,-2 3,-3 3,-5 0,-1 -1,-1 -5,-1 -25,0 -50,0 -75,0 -4,0 -4,0 -6,2 -3,10 -6,20 -9,30 -1,2 -1,2 -1,3 0,0 1,2 4,2 2,0 2,-1 2,-3 8,-23 21,-29 42,-29 10,0 19,0 29,0 -32,33 -63,65 -94,97 -2,2 -4,4 -4,6 0,2 2,2 5,2 26,0 52,0 78,0 5,0 5,0 6,-4 4,-11 8,-23 12,-35 0,-3 0,-2 0,-3 0,0 0,-2 -2,-2 -2,0 -3,0 -4,4 -8,22 -16,33 -44,33 -10,0 -21,0 -31,0 32,-32 63,-65 94,-97 z"
   id="path706" />
        </g>
       </g>
       <g
   class="com.sun.star.drawing.ClosedBezierShape"
   id="g716">
        <g
   id="id90">
         <rect
   class="BoundingBox"
   stroke="none"
   fill="none"
   x="5483"
   y="4779"
   width="82"
   height="115"
   id="rect711" />
         <path
   fill="#000000"
   stroke="none"
   d="m 5523,4784 c 0,-1 0,-2 0,-3 0,-1 0,-2 -2,-2 -4,0 -18,1 -21,1 -2,0 -4,1 -4,4 0,2 2,2 4,2 8,0 8,2 8,3 0,1 0,2 -1,3 -7,31 -15,61 -23,92 0,3 0,3 0,4 0,2 2,4 6,4 4,0 6,-2 7,-6 0,-1 7,-29 8,-31 11,0 20,4 20,13 0,1 0,1 0,3 0,2 0,3 0,5 0,12 9,16 17,16 16,0 13,-16 20,-24 0,-2 -2,-2 -3,-2 -1,0 -1,1 -3,4 -2,6 -6,18 -14,18 -4,0 -6,-4 -6,-8 0,-3 0,-4 2,-7 0,-1 0,-4 0,-6 0,-14 -19,-16 -26,-17 5,-2 11,-8 13,-10 9,-8 17,-15 26,-15 2,0 4,0 5,1 -6,1 -8,7 -8,10 0,3 3,6 6,6 5,0 9,-4 9,-11 0,-5 -4,-11 -12,-11 -9,0 -18,6 -26,14 -6,6 -12,12 -19,14 6,-21 11,-43 17,-64 z"
   id="path713" />
        </g>
       </g>
       <g
   class="com.sun.star.drawing.ClosedBezierShape"
   id="g723">
        <g
   id="id91">
         <rect
   class="BoundingBox"
   stroke="none"
   fill="none"
   x="5585"
   y="4790"
   width="121"
   height="122"
   id="rect718" />
         <path
   fill="#000000"
   stroke="none"
   d="m 5649,4855 c 17,0 33,0 50,0 2,0 5,0 5,-4 0,-5 -3,-5 -5,-5 -17,0 -33,0 -50,0 0,-16 0,-33 0,-49 0,-2 0,-6 -4,-6 -4,0 -4,4 -4,6 0,16 0,33 0,49 -16,0 -33,0 -50,0 -2,0 -6,0 -6,4 0,5 4,5 6,5 17,0 34,0 50,0 0,16 0,33 0,49 0,2 0,6 4,6 4,0 4,-4 4,-6 0,-16 0,-33 0,-49 z"
   id="path720" />
        </g>
       </g>
       <g
   class="com.sun.star.drawing.ClosedBezierShape"
   id="g730">
        <g
   id="id92">
         <rect
   class="BoundingBox"
   stroke="none"
   fill="none"
   x="5734"
   y="4783"
   width="60"
   height="109"
   id="rect725" />
         <path
   fill="#000000"
   stroke="none"
   d="m 5770,4788 c 0,-4 0,-4 -4,-4 -11,10 -25,10 -32,10 0,2 0,4 0,6 4,0 15,0 23,-4 0,27 0,54 0,82 0,5 0,7 -16,7 -2,0 -4,0 -6,0 0,2 0,4 0,6 3,0 23,-1 29,-1 5,0 25,1 29,1 0,-2 0,-4 0,-6 -2,0 -4,0 -6,0 -17,0 -17,-2 -17,-7 0,-30 0,-60 0,-90 z"
   id="path727" />
        </g>
       </g>
       <g
   class="com.sun.star.drawing.ClosedBezierShape"
   id="g737">
        <g
   id="id93">
         <rect
   class="BoundingBox"
   stroke="none"
   fill="none"
   x="5832"
   y="4652"
   width="57"
   height="233"
   id="rect732" />
         <path
   fill="#000000"
   stroke="none"
   d="m 5887,4768 c 0,-18 -3,-46 -15,-72 -14,-29 -34,-44 -36,-44 -2,0 -3,2 -3,3 0,1 0,1 5,5 23,23 36,60 36,108 0,39 -9,80 -38,109 -3,3 -3,3 -3,4 0,1 1,2 3,2 2,0 23,-15 37,-45 11,-25 14,-51 14,-70 z"
   id="path734" />
        </g>
       </g>
      </g>
      <g
   class="com.sun.star.drawing.LineShape"
   id="g748">
       <g
   id="id94">
        <rect
   class="BoundingBox"
   stroke="none"
   fill="none"
   x="2798"
   y="3126"
   width="810"
   height="353"
   id="rect741" />
        <path
   fill="none"
   stroke="#000000"
   stroke-width="35"
   stroke-linejoin="round"
   d="m 2816,3302 h 462"
   id="path743" />
        <path
   fill="#000000"
   stroke="none"
   d="m 3255,3126 352,176 -352,176 z"
   id="path745" />
       </g>
      </g>
      <g
   class="com.sun.star.drawing.ConnectorShape"
   id="g757">
       <g
   id="id95">
        <rect
   class="BoundingBox"
   stroke="none"
   fill="none"
   x="4280"
   y="2021"
   width="1158"
   height="253"
   id="rect750" />
        <path
   fill="none"
   stroke="#3faf46"
   stroke-width="35"
   stroke-linejoin="round"
   d="m 4298,2147 h 992"
   id="path752" />
        <path
   fill="#3faf46"
   stroke="none"
   d="m 5273,2021 164,126 -164,126 z"
   id="path754" />
       </g>
      </g>
      <g
   class="com.sun.star.drawing.ConnectorShape"
   id="g766">
       <g
   id="id96">
        <rect
   class="BoundingBox"
   stroke="none"
   fill="none"
   x="4059"
   y="2242"
   width="253"
   height="1158"
   id="rect759" />
        <path
   fill="none"
   stroke="#3faf46"
   stroke-width="35"
   stroke-linejoin="round"
   d="m 4185,2260 v 992"
   id="path761" />
        <path
   fill="#3faf46"
   stroke="none"
   d="m 4311,3235 -126,164 -126,-164 z"
   id="path763" />
       </g>
      </g>
      <g
   class="com.sun.star.drawing.ConnectorShape"
   id="g775">
       <g
   id="id97">
        <rect
   class="BoundingBox"
   stroke="none"
   fill="none"
   x="4280"
   y="3385"
   width="1158"
   height="253"
   id="rect768" />
        <path
   fill="none"
   stroke="#3faf46"
   stroke-width="35"
   stroke-linejoin="round"
   d="m 4298,3511 h 992"
   id="path770" />
        <path
   fill="#3faf46"
   stroke="none"
   d="m 5273,3385 164,126 -164,126 z"
   id="path772" />
       </g>
      </g>
      <g
   class="com.sun.star.drawing.ConnectorShape"
   id="g784">
       <g
   id="id98">
        <rect
   class="BoundingBox"
   stroke="none"
   fill="none"
   x="5423"
   y="2242"
   width="253"
   height="1158"
   id="rect777" />
        <path
   fill="none"
   stroke="#3faf46"
   stroke-width="35"
   stroke-linejoin="round"
   d="m 5549,2260 v 992"
   id="path779" />
        <path
   fill="#3faf46"
   stroke="none"
   d="m 5675,3235 -126,164 -126,-164 z"
   id="path781" />
       </g>
      </g>
     </g>
    </g>
   </g>
  </g>
 </g>
</svg>
