<?xml version="1.0" encoding="UTF-8" standalone="no"?>
<!-- Created with Inkscape (http://www.inkscape.org/) -->

<svg
   width="250mm"
   height="100mm"
   viewBox="0 0 250 100"
   version="1.1"
   id="svg1"
   inkscape:version="1.4 (e7c3feb100, 2024-10-09)"
   sodipodi:docname="blackwall_banner.svg"
   xml:space="preserve"
   xmlns:inkscape="http://www.inkscape.org/namespaces/inkscape"
   xmlns:sodipodi="http://sodipodi.sourceforge.net/DTD/sodipodi-0.dtd"
   xmlns:xlink="http://www.w3.org/1999/xlink"
   xmlns="http://www.w3.org/2000/svg"
   xmlns:svg="http://www.w3.org/2000/svg"><sodipodi:namedview
     id="namedview1"
     pagecolor="#c5ffff"
     bordercolor="#000000"
     borderopacity="0.25"
     inkscape:showpageshadow="2"
     inkscape:pageopacity="0.0"
     inkscape:pagecheckerboard="0"
     inkscape:deskcolor="#d1d1d1"
     inkscape:document-units="mm"
     inkscape:zoom="0.89"
     inkscape:cx="460.67416"
     inkscape:cy="426.96629"
     inkscape:window-width="3440"
     inkscape:window-height="1371"
     inkscape:window-x="0"
     inkscape:window-y="0"
     inkscape:window-maximized="1"
     inkscape:current-layer="layer2" /><defs
     id="defs1"><linearGradient
       id="linearGradient14"
       inkscape:collect="always"><stop
         style="stop-color:#c5c5c5;stop-opacity:1;"
         offset="0"
         id="stop14" /><stop
         style="stop-color:#dcdcdc;stop-opacity:1;"
         offset="1"
         id="stop15" /></linearGradient><linearGradient
       id="linearGradient12"
       inkscape:collect="always"><stop
         style="stop-color:#c5c5c5;stop-opacity:1;"
         offset="0"
         id="stop12" /><stop
         style="stop-color:#dcdcdc;stop-opacity:1;"
         offset="1"
         id="stop13" /></linearGradient><rect
       x="41.37931"
       y="258.62069"
       width="309.48276"
       height="74.137931"
       id="rect8" /><linearGradient
       inkscape:collect="always"
       xlink:href="#linearGradient12"
       id="linearGradient13"
       x1="3.8146973e-05"
       y1="50.000013"
       x2="249.99997"
       y2="50.000013"
       gradientUnits="userSpaceOnUse" /><linearGradient
       inkscape:collect="always"
       xlink:href="#linearGradient14"
       id="linearGradient15"
       x1="3.8146973e-05"
       y1="50.000013"
       x2="249.99997"
       y2="50.000013"
       gradientUnits="userSpaceOnUse" /><clipPath
       clipPathUnits="userSpaceOnUse"
       id="clipPath33"><rect
         style="fill:#000000;stroke:none;stroke-width:0.999995;stroke-linecap:butt;stroke-linejoin:bevel;paint-order:stroke markers fill;stop-color:#000000"
         id="rect33"
         width="46.19186"
         height="80.006783"
         x="74.999985"
         y="399.99661" /></clipPath><pattern
       inkscape:collect="always"
       patternUnits="userSpaceOnUse"
       width="2.5"
       height="1"
       patternTransform="translate(0,0) scale(2,2)"
       preserveAspectRatio="xMidYMid"
       id="Strips1_1.5-7"
       style="fill:#000000"
       inkscape:stockid="Stripes 02 (2:3)"
       inkscape:isstock="true"
       inkscape:label="Stripes 02 (2:3)"><rect
         style="stroke:none"
         x="0"
         y="-0.5"
         width="1"
         height="2"
         id="rect140-1" /></pattern><pattern
       inkscape:collect="always"
       xlink:href="#Strips1_1.5-7"
       preserveAspectRatio="xMidYMid"
       id="pattern1"
       patternTransform="rotate(90,-4.5161002,-7.9695886)"
       x="0"
       y="0" /><clipPath
       clipPathUnits="userSpaceOnUse"
       id="clipPath33-0"><rect
         style="fill:#000000;stroke:none;stroke-width:0.999995;stroke-linecap:butt;stroke-linejoin:bevel;paint-order:stroke markers fill;stop-color:#000000"
         id="rect33-4"
         width="46.19186"
         height="80.006783"
         x="74.999985"
         y="399.99661" /></clipPath><pattern
       inkscape:collect="always"
       patternUnits="userSpaceOnUse"
       width="2.5"
       height="1"
       patternTransform="translate(0,0) scale(2,2)"
       preserveAspectRatio="xMidYMid"
       id="Strips1_1.5-7-8"
       style="fill:#000000"
       inkscape:stockid="Stripes 02 (2:3)"
       inkscape:isstock="true"
       inkscape:label="Stripes 02 (2:3)"><rect
         style="stroke:none"
         x="0"
         y="-0.5"
         width="1"
         height="2"
         id="rect140-1-7" /></pattern><pattern
       inkscape:collect="always"
       xlink:href="#Strips1_1.5-7-8"
       preserveAspectRatio="xMidYMid"
       id="pattern1-1"
       patternTransform="rotate(90,-4.5161002,-7.9695886)"
       x="0"
       y="0" /><clipPath
       clipPathUnits="userSpaceOnUse"
       id="clipPath33-6"><rect
         style="fill:#000000;stroke:none;stroke-width:0.999995;stroke-linecap:butt;stroke-linejoin:bevel;paint-order:stroke markers fill;stop-color:#000000"
         id="rect33-1"
         width="46.19186"
         height="80.006783"
         x="74.999985"
         y="399.99661" /></clipPath><pattern
       inkscape:collect="always"
       patternUnits="userSpaceOnUse"
       width="2.5"
       height="1"
       patternTransform="translate(0,0) scale(2,2)"
       preserveAspectRatio="xMidYMid"
       id="Strips1_1.5-7-0"
       style="fill:#000000"
       inkscape:stockid="Stripes 02 (2:3)"
       inkscape:isstock="true"
       inkscape:label="Stripes 02 (2:3)"><rect
         style="stroke:none"
         x="0"
         y="-0.5"
         width="1"
         height="2"
         id="rect140-1-6" /></pattern><pattern
       inkscape:collect="always"
       xlink:href="#Strips1_1.5-7-0"
       preserveAspectRatio="xMidYMid"
       id="pattern1-15"
       patternTransform="rotate(90,-4.5161002,-7.9695886)"
       x="0"
       y="0" /><clipPath
       clipPathUnits="userSpaceOnUse"
       id="clipPath33-1"><rect
         style="fill:#000000;stroke:none;stroke-width:0.999995;stroke-linecap:butt;stroke-linejoin:bevel;paint-order:stroke markers fill;stop-color:#000000"
         id="rect33-7"
         width="46.19186"
         height="80.006783"
         x="74.999985"
         y="399.99661" /></clipPath><pattern
       inkscape:collect="always"
       patternUnits="userSpaceOnUse"
       width="2.5"
       height="1"
       patternTransform="translate(0,0) scale(2,2)"
       preserveAspectRatio="xMidYMid"
       id="Strips1_1.5-7-7"
       style="fill:#000000"
       inkscape:stockid="Stripes 02 (2:3)"
       inkscape:isstock="true"
       inkscape:label="Stripes 02 (2:3)"><rect
         style="stroke:none"
         x="0"
         y="-0.5"
         width="1"
         height="2"
         id="rect140-1-1" /></pattern><pattern
       inkscape:collect="always"
       xlink:href="#Strips1_1.5-7-7"
       preserveAspectRatio="xMidYMid"
       id="pattern1-159"
       patternTransform="rotate(90,-4.5161002,-7.9695886)"
       x="0"
       y="0" /><rect
       x="41.37931"
       y="258.62069"
       width="309.48276"
       height="74.137931"
       id="rect8-9" /><clipPath
       clipPathUnits="userSpaceOnUse"
       id="clipPath33-5"><rect
         style="fill:#000000;stroke:none;stroke-width:0.999995;stroke-linecap:butt;stroke-linejoin:bevel;paint-order:stroke markers fill;stop-color:#000000"
         id="rect33-3"
         width="46.19186"
         height="80.006783"
         x="74.999985"
         y="399.99661" /></clipPath><pattern
       inkscape:collect="always"
       patternUnits="userSpaceOnUse"
       width="2.5"
       height="1"
       patternTransform="translate(0,0) scale(2,2)"
       preserveAspectRatio="xMidYMid"
       id="Strips1_1.5-7-5"
       style="fill:#000000"
       inkscape:stockid="Stripes 02 (2:3)"
       inkscape:isstock="true"
       inkscape:label="Stripes 02 (2:3)"><rect
         style="stroke:none"
         x="0"
         y="-0.5"
         width="1"
         height="2"
         id="rect140-1-62" /></pattern><pattern
       inkscape:collect="always"
       xlink:href="#Strips1_1.5-7-5"
       preserveAspectRatio="xMidYMid"
       id="pattern1-9"
       patternTransform="rotate(90,-4.5161002,-7.9695886)"
       x="0"
       y="0" /><rect
       x="41.37931"
       y="258.62069"
       width="309.48276"
       height="74.137931"
       id="rect8-9-1" /><clipPath
       clipPathUnits="userSpaceOnUse"
       id="clipPath33-53"><rect
         style="fill:#000000;stroke:none;stroke-width:0.999995;stroke-linecap:butt;stroke-linejoin:bevel;paint-order:stroke markers fill;stop-color:#000000"
         id="rect33-5"
         width="46.19186"
         height="80.006783"
         x="74.999985"
         y="399.99661" /></clipPath><pattern
       inkscape:collect="always"
       patternUnits="userSpaceOnUse"
       width="2.5"
       height="1"
       patternTransform="translate(0,0) scale(2,2)"
       preserveAspectRatio="xMidYMid"
       id="Strips1_1.5-7-6"
       style="fill:#000000"
       inkscape:stockid="Stripes 02 (2:3)"
       inkscape:isstock="true"
       inkscape:label="Stripes 02 (2:3)"><rect
         style="stroke:none"
         x="0"
         y="-0.5"
         width="1"
         height="2"
         id="rect140-1-2" /></pattern><pattern
       inkscape:collect="always"
       xlink:href="#Strips1_1.5-7-6"
       preserveAspectRatio="xMidYMid"
       id="pattern1-91"
       patternTransform="rotate(90,-4.5161002,-7.9695886)"
       x="0"
       y="0" /><rect
       x="41.37931"
       y="258.62069"
       width="309.48276"
       height="74.137931"
       id="rect8-9-2" /><clipPath
       clipPathUnits="userSpaceOnUse"
       id="clipPath33-535"><rect
         style="fill:#000000;stroke:none;stroke-width:0.999995;stroke-linecap:butt;stroke-linejoin:bevel;paint-order:stroke markers fill;stop-color:#000000"
         id="rect33-6"
         width="46.19186"
         height="80.006783"
         x="74.999985"
         y="399.99661" /></clipPath><pattern
       inkscape:collect="always"
       patternUnits="userSpaceOnUse"
       width="2.5"
       height="1"
       patternTransform="translate(0,0) scale(2,2)"
       preserveAspectRatio="xMidYMid"
       id="Strips1_1.5-7-2"
       style="fill:#000000"
       inkscape:stockid="Stripes 02 (2:3)"
       inkscape:isstock="true"
       inkscape:label="Stripes 02 (2:3)"><rect
         style="stroke:none"
         x="0"
         y="-0.5"
         width="1"
         height="2"
         id="rect140-1-9" /></pattern><pattern
       inkscape:collect="always"
       xlink:href="#Strips1_1.5-7-2"
       preserveAspectRatio="xMidYMid"
       id="pattern1-12"
       patternTransform="rotate(90,-4.5161002,-7.9695886)"
       x="0"
       y="0" /><rect
       x="41.37931"
       y="258.62069"
       width="309.48276"
       height="74.137931"
       id="rect8-9-7" /></defs><rect
     style="fill:url(#linearGradient15);fill-opacity:1;stroke:url(#linearGradient13);stroke-width:18.8787;stroke-linecap:round;stroke-linejoin:round;stroke-miterlimit:16.5;stroke-dasharray:none;stroke-opacity:1"
     id="rect10"
     width="231.12123"
     height="81.121254"
     x="9.4393883"
     y="9.4393864"
     inkscape:label="background"
     sodipodi:insensitive="true" /><g
     inkscape:label="Layer 1"
     inkscape:groupmode="layer"
     id="layer1"><text
       xml:space="preserve"
       style="font-style:normal;font-variant:normal;font-weight:500;font-stretch:normal;font-size:11.2889px;font-family:'IBM Plex Sans';-inkscape-font-specification:'IBM Plex Sans Medium';text-align:start;writing-mode:lr-tb;direction:ltr;text-anchor:start;fill:#000000;fill-opacity:1;stroke-width:0.264583"
       x="4.7064886"
       y="37.71209"
       id="text5"
       inkscape:label="tag_line"><tspan
         sodipodi:role="line"
         style="font-style:normal;font-variant:normal;font-weight:500;font-stretch:normal;font-size:11.2889px;font-family:'IBM Plex Sans';-inkscape-font-specification:'IBM Plex Sans Medium';text-align:start;text-anchor:start;stroke-width:0.264583"
         x="4.7064886"
         y="37.71209"
         id="tspan7">securing today’s mainframes </tspan><tspan
         sodipodi:role="line"
         style="font-style:normal;font-variant:normal;font-weight:500;font-stretch:normal;font-size:11.2889px;font-family:'IBM Plex Sans';-inkscape-font-specification:'IBM Plex Sans Medium';text-align:start;text-anchor:start;stroke-width:0.264583"
         x="4.7064886"
         y="51.823215"
         id="tspan5">with tomorrow’s security</tspan></text><text
       xml:space="preserve"
       style="font-style:normal;font-variant:normal;font-weight:normal;font-stretch:normal;font-size:8.46667px;font-family:'IBM Plex Sans';-inkscape-font-specification:'IBM Plex Sans';text-align:start;writing-mode:lr-tb;direction:ltr;text-anchor:start;fill:#000000;fill-opacity:1;stroke-width:0.264583"
       x="4.8052664"
       y="62.407391"
       id="text10"
       inkscape:label="disclaimer"><tspan
         sodipodi:role="line"
         id="tspan10"
         style="font-size:8.46667px;stroke-width:0.264583"
         x="4.8052664"
         y="62.407391">-A CBTTape project</tspan></text></g><g
     inkscape:groupmode="layer"
     id="layer2"
     inkscape:label="LOGO"
     transform="translate(-0.29005995,-2.9078602)"><g
       inkscape:label="Layer 1"
       id="layer1-0"
       transform="matrix(0.54765777,0,0,0.54765777,149.06616,-2.382387)"><path
         id="path3"
         style="opacity:1;fill:none;fill-opacity:1;stroke:#a11616;stroke-width:4;stroke-dasharray:none;stroke-opacity:1"
         inkscape:transform-center-x="-2.4424926e-06"
         inkscape:transform-center-y="-21.650635"
         d="m 67.187507,69.5733 4.687494,-8.118988 4.687504,-8.118988 4.687504,-8.118988 4.687494,-8.118988 4.687505,-8.118989 4.687493,-8.118988 h 9.375009 l 4.68749,8.118988 4.68751,8.118989 4.68749,8.118988 4.68751,8.118988 4.68749,8.118988 4.6875,8.118988 L 100,77.692288 Z m 84.374993,32.47595 4.6875,8.119 4.6875,8.11898 4.6875,8.11899 4.6875,8.11899 -4.6875,8.11899 H 156.25 146.875 137.5 128.125 118.75 109.375 99.999995 90.624997 81.249999 71.875001 62.499999 53.125 43.75 34.375 l -4.6875,-8.11899 4.687501,-8.11899 4.6875,-8.11899 4.6875,-8.11898 4.6875,-8.119 L 100,115 Z"
         sodipodi:nodetypes="ccccccccccccccccccccccccccccccccccccccccccc"
         inkscape:label="Triangle"
         sodipodi:insensitive="true" /><path
         style="font-weight:800;font-size:25.4px;font-family:Orbitron;-inkscape-font-specification:'Orbitron Ultra-Bold';stroke-width:1.2"
         d="m 30.72868,167.36137 v 0 -19.558 h 3.6068 v 4.826 h 7.747 q 0.9906,0 1.8034,0.508 0.8128,0.4826 1.2954,1.2954 0.4826,0.8128 0.4826,1.778 v 7.5692 q 0,0.9652 -0.4826,1.778 -0.4826,0.8128 -1.2954,1.3208 -0.8128,0.4826 -1.8034,0.4826 z m 3.7592,-3.6068 h 7.4168 q 0.0762,0 0.1016,-0.0508 0.0508,-0.0508 0.0508,-0.1016 v -7.2136 q 0,-0.0508 -0.0508,-0.1016 -0.0254,-0.0508 -0.1016,-0.0508 h -7.4168 q -0.0508,0 -0.1016,0.0508 -0.0508,0.0508 -0.0508,0.1016 v 7.2136 q 0,0.0508 0.0508,0.1016 0.0508,0.0508 0.1016,0.0508 z m 16.713196,3.6068 q -0.9652,0 -1.778,-0.4826 -0.8128,-0.508 -1.3208,-1.3208 -0.4826,-0.8128 -0.4826,-1.778 v -16.002 h 3.6322 v 15.8242 q 0,0.0508 0.0508,0.1016 0.0508,0.0508 0.1016,0.0508 h 2.8956 v 3.6068 z m 8.632951,0 q -0.9652,0 -1.8034,-0.4826 -0.812799,-0.508 -1.295399,-1.3208 -0.4826,-0.8128 -0.4826,-1.778 v -5.6134 h 11.328399 v -1.778 q 0,-0.0508 -0.0508,-0.1016 -0.0508,-0.0508 -0.1016,-0.0508 H 56.252628 v -3.6068 h 11.353799 q 0.9906,0 1.8034,0.508 0.8128,0.4826 1.2954,1.2954 0.4826,0.8128 0.4826,1.778 v 11.1506 z m 0.1778,-3.6068 h 7.5692 v -2.3622 h -7.7216 v 2.2098 q 0,0.0508 0.0508,0.1016 0.0508,0.0508 0.1016,0.0508 z m 16.629783,3.6068 q -0.965199,0 -1.777999,-0.4826 -0.8128,-0.508 -1.3208,-1.3208 -0.4826,-0.8128 -0.4826,-1.778 v -7.5692 q 0,-0.9652 0.4826,-1.778 0.508,-0.8128 1.3208,-1.2954 0.8128,-0.508 1.777999,-0.508 h 11.3284 v 3.6068 h -11.1506 q -0.0508,0 -0.1016,0.0508 -0.0508,0.0508 -0.0508,0.1016 v 7.2136 q 0,0.0508 0.0508,0.1016 0.0508,0.0508 0.1016,0.0508 h 11.176 v 3.6068 z m 13.445171,0 v 0 -19.558 h 3.6068 v 10.3632 h 2.3114 l 5.105399,-5.5372 h 3.7338 v 1.1176 l -5.664199,6.2484 5.664199,6.2484 v 1.1176 h -3.7338 l -5.105399,-5.5372 h -2.3114 v 5.5372 z m 21.716999,0 v 0 l -5.7912,-14.732 h 3.8354 l 3.3782,8.128 3.5306,-8.128 h 3.60679 l 3.7846,8.2296 3.1242,-8.2296 h 3.8354 l -5.5372,14.732 h -2.7686 l -4.21639,-9.2964 -4.0132,9.2964 z m 24.39564,0 q -0.9652,0 -1.8034,-0.4826 -0.8128,-0.508 -1.2954,-1.3208 -0.4826,-0.8128 -0.4826,-1.778 v -5.6134 h 11.3284 v -1.778 q 0,-0.0508 -0.0508,-0.1016 -0.0508,-0.0508 -0.1016,-0.0508 h -11.176 v -3.6068 h 11.3538 q 0.9906,0 1.8034,0.508 0.8128,0.4826 1.2954,1.2954 0.4826,0.8128 0.4826,1.778 v 11.1506 z m 0.1778,-3.6068 h 7.5692 v -2.3622 h -7.7216 v 2.2098 q 0,0.0508 0.0508,0.1016 0.0508,0.0508 0.1016,0.0508 z m 16.82819,3.6068 q -0.9652,0 -1.778,-0.4826 -0.8128,-0.508 -1.3208,-1.3208 -0.4826,-0.8128 -0.4826,-1.778 v -16.002 h 3.6322 v 15.8242 q 0,0.0508 0.0508,0.1016 0.0508,0.0508 0.1016,0.0508 h 2.8956 v 3.6068 z m 8.64909,0 q -0.9652,0 -1.778,-0.4826 -0.8128,-0.508 -1.3208,-1.3208 -0.4826,-0.8128 -0.4826,-1.778 v -16.002 h 3.6322 v 15.8242 q 0,0.0508 0.0508,0.1016 0.0508,0.0508 0.1016,0.0508 h 2.8956 v 3.6068 z"
         id="text3"
         inkscape:label="Blackwall"
         aria-label="blackwall" /><path
         style="font-weight:800;font-size:12.7px;font-family:Orbitron;-inkscape-font-specification:'Orbitron Ultra-Bold';stroke-width:1.2"
         d="m 31.191606,180.37625 v 0 -7.366 h 8.9916 q 0.508,0 0.9144,0.254 0.4064,0.2413 0.6477,0.6477 0.2413,0.4064 0.2413,0.889 v 5.5753 h -1.8034 v -5.4864 q 0,-0.0254 -0.0254,-0.0508 -0.0127,-0.0254 -0.0508,-0.0254 h -2.5273 q -0.0381,0 -0.0635,0.0254 -0.0127,0.0254 -0.0127,0.0508 v 5.4864 h -1.8161 v -5.4864 q 0,-0.0254 -0.0254,-0.0508 -0.0254,-0.0254 -0.0508,-0.0254 h -2.54 q -0.0254,0 -0.0508,0.0254 -0.0127,0.0254 -0.0127,0.0508 v 5.4864 z m 13.85073,0 q -0.4826,0 -0.9017,-0.2413 -0.4064,-0.254 -0.6477,-0.6604 -0.2413,-0.4064 -0.2413,-0.889 v -2.8067 h 5.6642 v -0.889 q 0,-0.0254 -0.0254,-0.0508 -0.0254,-0.0254 -0.0508,-0.0254 h -5.588 v -1.8034 h 5.6769 q 0.4953,0 0.9017,0.254 0.4064,0.2413 0.6477,0.6477 0.2413,0.4064 0.2413,0.889 v 5.5753 z m 0.0889,-1.8034 h 3.7846 v -1.1811 h -3.8608 v 1.1049 q 0,0.0254 0.0254,0.0508 0.0254,0.0254 0.0508,0.0254 z m 6.934203,1.8034 v 0 -7.366 h 1.8034 v 7.366 z m 0,-7.9629 v 0 -1.8161 h 1.8034 v 1.8161 z m 3.299789,7.9629 v 0 -7.366 h 5.6769 q 0.4953,0 0.9017,0.254 0.4064,0.2413 0.6477,0.6477 0.2413,0.4064 0.2413,0.889 v 5.5753 h -1.8034 v -5.4864 q 0,-0.0254 -0.0254,-0.0508 -0.0127,-0.0254 -0.0508,-0.0254 h -3.7084 q -0.0254,0 -0.0508,0.0254 -0.0254,0.0254 -0.0254,0.0508 v 5.4864 z m 8.826488,0 v 0 -7.9883 q 0,-0.4826 0.2413,-0.889 0.254,-0.4064 0.6604,-0.6477 0.4064,-0.254 0.9017,-0.254 h 2.8067 v 1.8161 h -2.7305 q -0.0254,0 -0.0508,0.0254 -0.0254,0.0254 -0.0254,0.0508 v 0.5207 h 2.8067 v 1.8034 h -2.8067 v 5.5626 z m 5.511794,0 v 0 -5.5753 q 0,-0.4826 0.2413,-0.889 0.254,-0.4064 0.6604,-0.6477 0.4191,-0.254 0.9017,-0.254 h 4.0767 v 1.8034 h -4.0005 q -0.0254,0 -0.0508,0.0254 -0.0254,0.0254 -0.0254,0.0508 v 5.4864 z m 8.661744,0 q -0.4826,0 -0.9017,-0.2413 -0.4064,-0.254 -0.6477,-0.6604 -0.2413,-0.4064 -0.2413,-0.889 v -2.8067 h 5.6642 v -0.889 q 0,-0.0254 -0.0254,-0.0508 -0.0254,-0.0254 -0.0508,-0.0254 h -5.588 v -1.8034 h 5.6769 q 0.4953,0 0.9017,0.254 0.4064,0.2413 0.6477,0.6477 0.2413,0.4064 0.2413,0.889 v 5.5753 z m 0.0889,-1.8034 h 3.7846 v -1.1811 h -3.8608 v 1.1049 q 0,0.0254 0.0254,0.0508 0.0254,0.0254 0.0508,0.0254 z m 6.60829,1.8034 v 0 -7.366 h 8.9916 q 0.508,0 0.9144,0.254 0.4064,0.2413 0.6477,0.6477 0.2413,0.4064 0.2413,0.889 v 5.5753 h -1.8034 v -5.4864 q 0,-0.0254 -0.0254,-0.0508 -0.0127,-0.0254 -0.0508,-0.0254 h -2.5273 q -0.0381,0 -0.0635,0.0254 -0.0127,0.0254 -0.0127,0.0508 v 5.4864 h -1.8161 v -5.4864 q 0,-0.0254 -0.0254,-0.0508 -0.0254,-0.0254 -0.0508,-0.0254 h -2.54 q -0.0254,0 -0.0508,0.0254 -0.0127,0.0254 -0.0127,0.0508 v 5.4864 z m 13.740702,0 q -0.4826,0 -0.889,-0.2413 -0.4064,-0.254 -0.6604,-0.6604 -0.2413,-0.4064 -0.2413,-0.889 v -3.7846 q 0,-0.4826 0.2413,-0.889 0.254,-0.4064 0.6604,-0.6477 0.4064,-0.254 0.889,-0.254 h 3.886204 q 0.4953,0 0.9017,0.254 0.4064,0.2413 0.6477,0.6477 0.2413,0.4064 0.2413,0.889 v 2.8067 h -5.664204 v 0.889 q 0,0.0254 0.0254,0.0508 0.0254,0.0254 0.0508,0.0254 h 5.588004 v 1.8034 z m 0.0127,-4.3815 h 3.860804 v -1.1049 q 0,-0.0254 -0.0254,-0.0508 -0.0254,-0.0254 -0.0508,-0.0254 h -3.708404 q -0.0254,0 -0.0508,0.0254 -0.0254,0.0254 -0.0254,0.0508 z m 12.738104,4.3815 q -0.4826,0 -0.889,-0.2413 -0.4064,-0.254 -0.6604,-0.6604 -0.2413,-0.4064 -0.2413,-0.889 v -0.3302 h 1.8034 v 0.2413 q 0,0.0254 0.0254,0.0508 0.0254,0.0254 0.0508,0.0254 h 3.7084 q 0.0254,0 0.0508,-0.0254 0.0254,-0.0254 0.0254,-0.0508 v -0.8255 q 0,-0.0254 -0.0254,-0.0381 -0.0254,-0.0254 -0.0508,-0.0254 h -3.7973 q -0.4826,0 -0.889,-0.2413 -0.4064,-0.254 -0.6604,-0.6604 -0.2413,-0.4064 -0.2413,-0.9017 v -1.0033 q 0,-0.4826 0.2413,-0.889 0.254,-0.4064 0.6604,-0.6477 0.4064,-0.254 0.889,-0.254 h 3.8862 q 0.4953,0 0.9017,0.254 0.4064,0.2413 0.6477,0.6477 0.254,0.4064 0.254,0.889 v 0.3302 h -1.8161 v -0.2413 q 0,-0.0254 -0.0254,-0.0508 -0.0254,-0.0254 -0.0508,-0.0254 h -3.7084 q -0.0254,0 -0.0508,0.0254 -0.0254,0.0254 -0.0254,0.0508 v 0.8255 q 0,0.0254 0.0254,0.0508 0.0254,0.0127 0.0508,0.0127 h 3.7973 q 0.4953,0 0.9017,0.254 0.4064,0.2413 0.6477,0.6477 0.254,0.4064 0.254,0.9017 v 1.0033 q 0,0.4826 -0.254,0.889 -0.2413,0.4064 -0.6477,0.6604 -0.4064,0.2413 -0.9017,0.2413 z m 8.49495,0 q -0.4826,0 -0.889,-0.2413 -0.4064,-0.254 -0.6604,-0.6604 -0.2413,-0.4064 -0.2413,-0.889 v -3.7846 q 0,-0.4826 0.2413,-0.889 0.254,-0.4064 0.6604,-0.6477 0.4064,-0.254 0.889,-0.254 h 3.8862 q 0.4953,0 0.9017,0.254 0.4064,0.2413 0.6477,0.6477 0.2413,0.4064 0.2413,0.889 v 2.8067 h -5.6642 v 0.889 q 0,0.0254 0.0254,0.0508 0.0254,0.0254 0.0508,0.0254 h 5.588 v 1.8034 z m 0.0127,-4.3815 h 3.8608 v -1.1049 q 0,-0.0254 -0.0254,-0.0508 -0.0254,-0.0254 -0.0508,-0.0254 h -3.7084 q -0.0254,0 -0.0508,0.0254 -0.0254,0.0254 -0.0254,0.0508 z m 8.46761,4.3815 q -0.4826,0 -0.889,-0.2413 -0.4064,-0.254 -0.6604,-0.6604 -0.2413,-0.4064 -0.2413,-0.889 v -3.7846 q 0,-0.4826 0.2413,-0.889 0.254,-0.4064 0.6604,-0.6477 0.4064,-0.254 0.889,-0.254 h 5.6642 v 1.8034 h -5.5753 q -0.0254,0 -0.0508,0.0254 -0.0254,0.0254 -0.0254,0.0508 v 3.6068 q 0,0.0254 0.0254,0.0508 0.0254,0.0254 0.0508,0.0254 h 5.588 v 1.8034 z m 8.5222,0 q -0.4826,0 -0.9017,-0.2413 -0.4064,-0.254 -0.6477,-0.6604 -0.2413,-0.4064 -0.2413,-0.889 v -5.5753 h 1.8034 v 5.4864 q 0,0.0254 0.0254,0.0508 0.0254,0.0254 0.0508,0.0254 h 3.7084 q 0.0254,0 0.0508,-0.0254 0.0254,-0.0254 0.0254,-0.0508 v -5.4864 h 1.8034 v 5.5753 q 0,0.4826 -0.2413,0.889 -0.2413,0.4064 -0.6477,0.6604 -0.4064,0.2413 -0.9017,0.2413 z m 7.02309,0 v 0 -5.5753 q 0,-0.4826 0.2413,-0.889 0.254,-0.4064 0.6604,-0.6477 0.4191,-0.254 0.9017,-0.254 h 4.0767 v 1.8034 h -4.0005 q -0.0254,0 -0.0508,0.0254 -0.0254,0.0254 -0.0254,0.0508 v 5.4864 z m 6.87104,0 v 0 -7.366 h 1.8034 v 7.366 z m 0,-7.9629 v 0 -1.8161 h 1.8034 v 1.8161 z m 4.90254,7.9629 q -0.4953,0 -0.9017,-0.2413 -0.4064,-0.254 -0.6604,-0.6604 -0.2413,-0.4064 -0.2413,-0.889 v -7.7978 h 1.8034 v 2.2225 h 2.8067 v 1.8034 h -2.8067 v 3.683 q 0,0.0254 0.0254,0.0508 0.0254,0.0254 0.0508,0.0254 h 2.7305 v 1.8034 z m 5.01034,2.6797 v 0 -1.8161 h 4.4069 q 0.0254,0 0.0508,-0.0254 0.0254,-0.0254 0.0254,-0.0508 v -0.7874 h -3.8735 q -0.4953,0 -0.9017,-0.2413 -0.4064,-0.254 -0.6604,-0.6604 -0.2413,-0.4064 -0.2413,-0.889 v -5.5499 h 1.8034 v 5.461 q 0,0.0254 0.0254,0.0508 0.0254,0.0254 0.0508,0.0254 h 3.7211 q 0.0254,0 0.0508,-0.0254 0.0254,-0.0254 0.0254,-0.0508 v -5.461 h 1.8034 v 8.2296 q 0,0.4953 -0.2413,0.9017 -0.2286,0.4064 -0.6477,0.6477 -0.4064,0.2413 -0.9017,0.2413 z"
         id="text3-3"
         inkscape:label="Security"
         aria-label="mainframe security" /><rect
         style="fill:none;fill-opacity:1;stroke:#000000;stroke-width:1.5;stroke-dasharray:none;stroke-opacity:1"
         id="rect8-93"
         width="14.842982"
         height="14.311676"
         x="92.578506"
         y="50.358025"
         rx="0.39264458"
         ry="0.37858984" /><path
         id="path8"
         style="fill:none;stroke:#000000;stroke-width:1.5;stroke-dasharray:none;stroke-opacity:1"
         d="m 105.06324,50.357959 c -1.27182,0.0023 -10.102731,0 -10.102731,0 l -0.02727,-4.322391 c -0.006,-0.947875 0.137286,-1.759568 0.42169,-2.482472 0.284404,-0.722904 0.689113,-1.356653 1.170584,-1.880362 0.481471,-0.523708 1.039703,-0.937376 1.631154,-1.220116 0.591449,-0.282741 1.216119,-0.434554 1.83046,-0.434554 0.614343,0 1.239213,0.151137 1.830913,0.433031 0.5917,0.281895 1.15024,0.694547 1.63191,1.217579 0.48168,0.523031 0.88649,1.156442 1.17074,1.879854 0.28425,0.723412 0.45432,1.53686 0.44596,2.453442 -0.009,1.001277 4.5e-4,2.839223 -0.003,4.355989 z"
         sodipodi:nodetypes="ccsssscssssc" /><path
         id="rect1"
         style="fill:none;stroke:#000000;stroke-width:0.542093;stroke-dasharray:none"
         d="m 100.74694,61.034409 c -1.8e-4,0.458111 -0.24048,0.826914 -0.53919,0.826914 h -0.415573 c -0.298713,0 -0.539024,-0.368803 -0.539194,-0.826914 L 99.251783,57.8 c -0.255054,-0.128333 -0.441991,-0.259032 -0.613254,-0.404034 -0.190341,-0.161155 -0.315201,-0.39097 -0.412632,-0.626941 -0.09743,-0.235971 -0.151308,-0.495408 -0.151308,-0.767736 0,-1.089311 0.862036,-1.972372 1.925411,-1.972372 1.06337,-3e-6 1.92541,0.883059 1.92541,1.972372 0,0.272328 -0.0539,0.531766 -0.15131,0.767738 -0.0974,0.235971 -0.23842,0.448477 -0.41263,0.626942 -0.17422,0.178465 -0.41688,0.323355 -0.61325,0.404031 z"
         sodipodi:nodetypes="sssscssssssscs" /></g></g></svg>
