<?xml version="1.0" encoding="UTF-8" standalone="no"?>
<!DOCTYPE svg PUBLIC "-//W3C//DTD SVG 1.1//EN" "http://www.w3.org/Graphics/SVG/1.1/DTD/svg11.dtd">
<svg width="100%" height="100%" viewBox="0 0 50 50" version="1.1" xmlns="http://www.w3.org/2000/svg" xmlns:xlink="http://www.w3.org/1999/xlink" xml:space="preserve" xmlns:serif="http://www.serif.com/" style="fill-rule:evenodd;clip-rule:evenodd;stroke-linecap:round;stroke-linejoin:round;stroke-miterlimit:1.5;">
    <g id="g10" transform="matrix(1.33333,0,0,-1.33333,-672.581,575.345)">
        <g id="text22">
        </g>
        <g id="text26">
        </g>
        <g id="text32">
        </g>
        <g id="text44">
        </g>
        <g id="text80">
        </g>
        <g id="g82">
        </g>
        <g id="g112">
            <g id="g114">
                <g id="g120">
                    <g id="g122">
                        <rect id="path128" x="505.02" y="394.98" width="36" height="36" style="fill:rgb(0,0,255);fill-rule:nonzero;"/>
                        <rect id="path130" x="505.02" y="430.44" width="36.54" height="1.02" style="fill:rgb(0,0,255);fill-rule:nonzero;"/>
                        <rect id="path132" x="540.54" y="394.44" width="1.02" height="36.54" style="fill:rgb(0,0,255);fill-rule:nonzero;"/>
                        <rect id="path134" x="504.54" y="394.44" width="36.48" height="1.02" style="fill:rgb(0,0,255);fill-rule:nonzero;"/>
                        <rect id="path136" x="504.54" y="394.98" width="1.02" height="36.48" style="fill:rgb(0,0,255);fill-rule:nonzero;"/>
                    </g>
                </g>
            </g>
        </g>
        <g id="g138">
            <g id="g140">
                <clipPath id="_clip1">
                    <rect x="508.62" y="398.58" width="28.8" height="28.8"/>
                </clipPath>
                <g clip-path="url(#_clip1)">
                    <g id="g146">
                        <g id="g148">
                            <g id="g154">
                                <g id="g156">
                                    <rect id="path162" x="508.62" y="398.58" width="28.8" height="28.8" style="fill:rgb(126,126,126);fill-rule:nonzero;"/>
                                    <rect id="path164" x="508.62" y="426.84" width="28.8" height="0.57" style="fill:rgb(126,126,126);fill-rule:nonzero;"/>
                                    <rect id="path166" x="536.94" y="398.55" width="0.48" height="28.83" style="fill:rgb(126,126,126);fill-rule:nonzero;"/>
                                    <rect id="path168" x="508.56" y="398.55" width="28.86" height="0.51" style="fill:rgb(126,126,126);fill-rule:nonzero;"/>
                                    <rect id="path170" x="508.56" y="398.58" width="0.6" height="28.83" style="fill:rgb(126,126,126);fill-rule:nonzero;"/>
                                </g>
                            </g>
                        </g>
                    </g>
                </g>
            </g>
        </g>
        <g transform="matrix(0.675224,0,0,-0.807857,517.479,433.55)">
            <rect x="-8.5" y="11.5" width="33.5" height="28" style="fill:rgb(0,0,255);"/>
        </g>
        <g transform="matrix(0.0790695,0,0,-0.0790695,508.507,427.092)">
            <path d="M234,138L222,156C233.193,173.177 237.713,199.793 234,216C230.287,232.207 210.419,247.145 198,252C185.581,256.855 164.883,256.959 151.5,250.5C139.69,244.8 123.825,228.183 120,216C114.696,199.108 115.764,190.385 121.5,175.5C126.859,161.594 135.348,152.997 144,144C152.652,135.003 174,114 174,114L176.5,111L176.5,84L175.999,84C175.999,84 153.498,104.031 144,112.5C134.502,120.969 126.822,126.559 114,144C101.178,161.441 97.463,172.64 96,192C94.537,211.36 102.589,228.993 109.5,238.5C116.313,247.873 129.185,260.368 139.5,265.5C156.841,274.128 187.824,276.487 204,270C220.176,263.513 237.237,250.253 244.5,238.5C251.763,226.747 256.733,212.72 256.5,198C256.267,183.28 242.496,146.042 234,138" style="fill:white;stroke:white;stroke-width:2.85px;"/>
        </g>
        <g transform="matrix(0.75,0,0,-0.75,504.249,430.947)">
            <circle cx="27.75" cy="17.75" r="1.25" style="fill:white;stroke:white;stroke-width:0.9px;"/>
        </g>
    </g>
</svg>
