<?xml version="1.0" encoding="UTF-8" standalone="no"?>
<!DOCTYPE svg PUBLIC "-//W3C//DTD SVG 1.1//EN" "http://www.w3.org/Graphics/SVG/1.1/DTD/svg11.dtd">
<svg width="100%" height="100%" viewBox="0 0 50 50" version="1.1" xmlns="http://www.w3.org/2000/svg" xmlns:xlink="http://www.w3.org/1999/xlink" xml:space="preserve" xmlns:serif="http://www.serif.com/" style="fill-rule:evenodd;clip-rule:evenodd;stroke-linecap:square;stroke-miterlimit:1.5;">
    <g id="g10" transform="matrix(1.33333,0,0,-1.33333,-672.581,575.345)">
        <g id="g112">
            <g id="g114">
                <g id="g120">
                    <g id="g122">
                        <rect id="path128" x="505.02" y="394.98" width="36" height="36" style="fill:rgb(0,0,255);fill-rule:nonzero;"/>
                        <rect id="path130" x="505.02" y="430.44" width="36.54" height="1.02" style="fill:rgb(0,0,255);fill-rule:nonzero;"/>
                        <rect id="path132" x="540.54" y="394.44" width="1.02" height="36.54" style="fill:rgb(0,0,255);fill-rule:nonzero;"/>
                        <rect id="path134" x="504.54" y="394.44" width="36.48" height="1.02" style="fill:rgb(0,0,255);fill-rule:nonzero;"/>
                        <rect id="path136" x="504.54" y="394.98" width="1.02" height="36.48" style="fill:rgb(0,0,255);fill-rule:nonzero;"/>
                    </g>
                </g>
            </g>
        </g>
        <g id="g138">
            <g id="g140">
                <clipPath id="_clip1">
                    <rect x="508.62" y="398.58" width="28.8" height="28.8"/>
                </clipPath>
                <g clip-path="url(#_clip1)">
                    <g id="g146">
                        <g id="g148">
                            <g id="g154">
                                <g id="g156">
                                    <rect id="path162" x="508.62" y="398.58" width="28.8" height="28.8" style="fill:rgb(126,126,126);fill-rule:nonzero;"/>
                                    <rect id="path164" x="508.62" y="426.84" width="28.8" height="0.57" style="fill:rgb(126,126,126);fill-rule:nonzero;"/>
                                    <rect id="path166" x="536.94" y="398.55" width="0.48" height="28.83" style="fill:rgb(126,126,126);fill-rule:nonzero;"/>
                                    <rect id="path168" x="508.56" y="398.55" width="28.86" height="0.51" style="fill:rgb(126,126,126);fill-rule:nonzero;"/>
                                    <rect id="path170" x="508.56" y="398.58" width="0.6" height="28.83" style="fill:rgb(126,126,126);fill-rule:nonzero;"/>
                                </g>
                            </g>
                        </g>
                    </g>
                </g>
            </g>
        </g>
        <g transform="matrix(0.675224,0,0,-0.807857,517.479,433.55)">
            <rect x="-8.5" y="11.5" width="33.5" height="28" style="fill:rgb(0,0,255);"/>
        </g>
        <g transform="matrix(0.104167,0,0,-0.104167,504.696,431.936)">
            <path d="M132,129C142.72,129.041 143.356,128.902 150,129C156.644,129.098 170.795,127.342 171.044,129C171.475,131.866 171,135 171,135L171,138L120,138C120,138 99.917,135.815 93,144C85.685,152.656 82.229,155.6 81.098,170.261C79.966,184.923 79.513,199.648 90,210C100.487,220.352 126,219 126,219C126,219 126.494,205.626 132,194.37C136.801,184.554 142.243,182.202 149.5,180C159.65,176.92 173.775,178.281 183,176.95C191.853,175.672 199.312,174.73 207,164.95C216.485,152.883 216.498,146.601 216,132C215.502,117.399 211.132,106.524 201,98.95C190.868,91.376 170.846,91.662 156,93C141.154,94.338 135.759,101.792 132,108C129.433,112.24 127.463,119.019 129,128.947" style="fill:white;stroke:white;stroke-width:3.6px;"/>
        </g>
        <g transform="matrix(-0.104167,0,0,0.104167,541.44,393.964)">
            <path d="M132,129C142.72,129.041 143.356,128.902 150,129C156.644,129.098 170.795,127.342 171.044,129C171.475,131.866 171,135 171,135L171,138L120,138C120,138 99.917,135.815 93,144C85.685,152.656 83.715,155.6 82.583,170.261C81.451,184.923 79.513,199.648 90,210C100.487,220.352 126,219 126,219C126,219 128.496,204.664 133.394,193.131C136.59,185.604 142.424,181.645 148.583,178.928C155.045,176.078 175.358,176.462 184.583,175.131C193.436,173.853 200.895,175.89 208.583,166.11C218.068,154.043 216.498,146.601 216,132C215.502,117.399 211.132,106.524 201,98.95C190.868,91.376 170.846,91.662 156,93C141.154,94.338 135.759,101.792 132,108C129.433,112.24 127.463,119.019 129,128.947" style="fill:rgb(128,128,128);stroke:rgb(128,128,128);stroke-width:3.24px;"/>
        </g>
        <g transform="matrix(0.104167,0,0,-0.104167,512.838,431.7)">
            <circle cx="72" cy="108" r="6" style="fill:rgb(128,128,128);stroke:rgb(129,129,129);stroke-width:6.84px;"/>
        </g>
        <g transform="matrix(0.104167,0,0,-0.104167,518.368,416.7)">
            <circle cx="72" cy="108" r="6" style="fill:white;stroke:white;stroke-width:7.2px;"/>
        </g>
    </g>
</svg>
