<?xml version="1.0" encoding="UTF-8" standalone="no"?>
<!DOCTYPE svg PUBLIC "-//W3C//DTD SVG 1.1//EN" "http://www.w3.org/Graphics/SVG/1.1/DTD/svg11.dtd">
<svg width="100%" height="100%" viewBox="0 0 50 50" version="1.1" xmlns="http://www.w3.org/2000/svg" xmlns:xlink="http://www.w3.org/1999/xlink" xml:space="preserve" xmlns:serif="http://www.serif.com/" style="fill-rule:evenodd;clip-rule:evenodd;stroke-linecap:square;stroke-miterlimit:1.5;">
    <g id="g10" transform="matrix(1.33333,0,0,-1.33333,-672.581,575.345)">
        <g id="g112">
            <g id="g114">
                <g id="g120">
                    <g id="g122">
                        <rect id="path128" x="505.02" y="394.98" width="36" height="36" style="fill:rgb(0,0,255);fill-rule:nonzero;"/>
                        <rect id="path130" x="505.02" y="430.44" width="36.54" height="1.02" style="fill:rgb(0,0,255);fill-rule:nonzero;"/>
                        <rect id="path132" x="540.54" y="394.44" width="1.02" height="36.54" style="fill:rgb(0,0,255);fill-rule:nonzero;"/>
                        <rect id="path134" x="504.54" y="394.44" width="36.48" height="1.02" style="fill:rgb(0,0,255);fill-rule:nonzero;"/>
                        <rect id="path136" x="504.54" y="394.98" width="1.02" height="36.48" style="fill:rgb(0,0,255);fill-rule:nonzero;"/>
                    </g>
                </g>
            </g>
        </g>
        <g id="g138">
            <g id="g140">
                <clipPath id="_clip1">
                    <rect x="508.62" y="398.58" width="28.8" height="28.8"/>
                </clipPath>
                <g clip-path="url(#_clip1)">
                    <g id="g146">
                        <g id="g148">
                            <g id="g154">
                                <g id="g156">
                                    <rect id="path162" x="508.62" y="398.58" width="28.8" height="28.8" style="fill:rgb(126,126,126);fill-rule:nonzero;"/>
                                    <rect id="path164" x="508.62" y="426.84" width="28.8" height="0.57" style="fill:rgb(126,126,126);fill-rule:nonzero;"/>
                                    <rect id="path166" x="536.94" y="398.55" width="0.48" height="28.83" style="fill:rgb(126,126,126);fill-rule:nonzero;"/>
                                    <rect id="path168" x="508.56" y="398.55" width="28.86" height="0.51" style="fill:rgb(126,126,126);fill-rule:nonzero;"/>
                                    <rect id="path170" x="508.56" y="398.58" width="0.6" height="28.83" style="fill:rgb(126,126,126);fill-rule:nonzero;"/>
                                </g>
                            </g>
                        </g>
                    </g>
                </g>
            </g>
        </g>
        <g transform="matrix(0.675224,0,0,-0.807857,517.479,433.55)">
            <rect x="-8.5" y="11.5" width="33.5" height="28" style="fill:rgb(0,0,255);"/>
        </g>
        <g transform="matrix(0.75,0,0,-0.75,505.186,431.509)">
            <path d="M23,30L18,27L18,23L23,20L31.5,20L36.5,23L36.5,27L31.5,30L23,30Z" style="fill:none;stroke:white;stroke-width:1.5px;"/>
        </g>
        <g transform="matrix(0.75,0,0,-0.75,507.03,431.509)">
            <g transform="matrix(1,-0,-0,1,-3.45867,0)">
                <path d="M30.391,16.632L28.277,19.5L26.116,16.668L30.391,16.632Z" style="fill:white;"/>
                <path d="M27.744,12.529L27.787,17.699L28.737,17.691L28.694,12.521L27.744,12.529Z" style="fill:white;"/>
            </g>
        </g>
        <g transform="matrix(4.59243e-17,0.75,0.75,-4.59243e-17,503.499,394.145)">
            <g transform="matrix(6.12323e-17,1,-1,6.12323e-17,49.8187,1.25)">
                <path d="M15.382,22.887L18.25,25L15.418,27.161L15.382,22.887Z" style="fill:white;"/>
                <path d="M11.279,25.534L16.449,25.49L16.441,24.54L11.271,24.584L11.279,25.534Z" style="fill:white;"/>
            </g>
        </g>
    </g>
</svg>
